<svg xmlns="http://www.w3.org/2000/svg" width="16" height="16" viewBox="0 0 16 16"><g transform="translate(0 -1036.362)"><path fill="#c2e4f8" d="m 751.83508,732.81873 a 7,7 0 0 1 -7,7 7,7 0 0 1 -7,-7 7,7 0 0 1 7,-7 7,7 0 0 1 7,7 z" transform="rotate(45)"/><path fill="#249fe6" style="line-height:normal;text-indent:0;text-align:start;text-decoration-line:none;text-decoration-style:solid;text-decoration-color:#000;text-transform:none;block-progression:tb;isolation:auto;mix-blend-mode:normal" d="m 13.801013,1039.5561 c -2.924749,-2.9248 -7.6818594,-2.9248 -10.6066016,0 -2.92474209,2.9247 -2.92474916,7.6818 0,10.6066 2.9247422,2.9247 7.6818596,2.9247 10.6066016,0 2.924742,-2.9248 2.924742,-7.6819 0,-10.6066 z m -0.707107,0.7071 c 2.542594,2.5426 2.542594,6.6498 0,9.1924 -2.542593,2.5426 -6.6497944,2.5426 -9.1923878,0 -2.5426004,-2.5426 -2.5425933,-6.6498 0,-9.1924 2.5425934,-2.5426 6.6497878,-2.5426 9.1923878,0 z" color="#000" font-family="sans-serif" font-weight="400" overflow="visible"/><path fill="#249fe6" fill-rule="evenodd" style="line-height:normal;text-indent:0;text-align:start;text-decoration-line:none;text-decoration-style:solid;text-decoration-color:#000;text-transform:none;block-progression:tb;isolation:auto;mix-blend-mode:normal" d="m 11.507812,1042.8574 a 0.50005,0.50005 0 0 0 -0.310546,0.1035 l -3.6542972,2.7403 -1.6933594,-1.6934 a 0.50005,0.50005 0 1 0 -0.7070313,0.707 l 2,2 a 0.50005,0.50005 0 0 0 0.6542969,0.047 l 4,-3 a 0.50005,0.50005 0 0 0 -0.289063,-0.9043 z" color="#000" font-family="sans-serif" font-weight="400" overflow="visible"/></g></svg>