<svg width="25" height="24" viewBox="0 0 25 24" fill="none" xmlns="http://www.w3.org/2000/svg">
<path d="M18.5 18.86H17.74C16.94 18.86 16.18 19.17 15.62 19.73L13.91 21.42C13.13 22.19 11.86 22.19 11.08 21.42L9.37 19.73C8.81 19.17 8.04 18.86 7.25 18.86H6.5C4.84 18.86 3.5 17.53 3.5 15.89V4.97998C3.5 3.33998 4.84 2.01001 6.5 2.01001H18.5C20.16 2.01001 21.5 3.33998 21.5 4.97998V15.89C21.5 17.52 20.16 18.86 18.5 18.86Z" stroke="#424242" stroke-width="1.5" stroke-miterlimit="10" stroke-linecap="round" stroke-linejoin="round"/>
<path opacity="0.4" d="M7.5 9.16003C7.5 8.23003 8.26 7.46997 9.19 7.46997C10.12 7.46997 10.88 8.23003 10.88 9.16003C10.88 11.04 8.21 11.24 7.62 13.03C7.5 13.4 7.81 13.77 8.2 13.77H10.88" stroke="#872ff7" stroke-width="1.5" stroke-linecap="round" stroke-linejoin="round"/>
<path opacity="0.4" d="M16.5398 13.76V8.05003C16.5398 7.79003 16.3698 7.55997 16.1198 7.48997C15.8698 7.41997 15.5998 7.51997 15.4598 7.73997C14.7398 8.89997 13.9598 10.22 13.2798 11.38C13.1698 11.57 13.1698 11.82 13.2798 12.01C13.3898 12.2 13.5998 12.3199 13.8298 12.3199H17.4998" stroke="#872ff7" stroke-width="1.5" stroke-linecap="round" stroke-linejoin="round"/>
</svg>
