<svg width="14" height="15" viewBox="0 0 14 15" fill="none" xmlns="http://www.w3.org/2000/svg">
<g clip-path="url(#clip0_361_11003)">
<path fill-rule="evenodd" clip-rule="evenodd" d="M12.25 7.49967C12.25 7.82184 11.9888 8.08301 11.6667 8.08301L2.33333 8.08301C2.01117 8.08301 1.75 7.82184 1.75 7.49967C1.75 7.17751 2.01117 6.91634 2.33333 6.91634L11.6667 6.91634C11.9888 6.91634 12.25 7.17751 12.25 7.49967Z" fill="white"/>
<path fill-rule="evenodd" clip-rule="evenodd" d="M7.75419 11.4122C7.52638 11.1843 7.52638 10.815 7.75419 10.5872L10.8417 7.49967L7.75419 4.41215C7.52638 4.18435 7.52638 3.815 7.75419 3.58719C7.98199 3.35939 8.35134 3.35939 8.57915 3.58719L12.0791 7.08719C12.307 7.315 12.307 7.68435 12.0791 7.91215L8.57915 11.4122C8.35134 11.64 7.98199 11.64 7.75419 11.4122Z" fill="white"/>
</g>
<defs>
<clipPath id="clip0_361_11003">
<rect width="14" height="14" fill="white" transform="translate(0 0.5)"/>
</clipPath>
</defs>
</svg>
