<svg width="46" height="46" viewBox="0 0 46 46" fill="none" xmlns="http://www.w3.org/2000/svg">
<path fill-rule="evenodd" clip-rule="evenodd" d="M15.5692 25.7601C15.54 25.7596 15.5108 25.7596 15.4816 25.7606C15.4814 25.7606 15.4812 25.7606 15.481 25.7606C14.761 25.7888 13.7341 25.7843 11.7345 25.8033C11.7029 25.8032 11.6716 25.8094 11.6424 25.8215C11.6132 25.8335 11.5868 25.8513 11.5645 25.8737C11.5422 25.8961 11.5246 25.9227 11.5127 25.9519C11.5008 25.9812 11.4948 26.0125 11.4951 26.0441C11.4954 26.0757 11.502 26.1069 11.5144 26.1359C11.5269 26.1649 11.545 26.1912 11.5677 26.2131C11.5904 26.2351 11.6172 26.2524 11.6466 26.2639C11.676 26.2754 11.7074 26.281 11.739 26.2803C13.7358 26.2613 14.7597 26.2662 15.4992 26.2372C15.4992 26.2372 15.4996 26.2372 15.4998 26.2372C15.8093 26.2261 16.2009 26.3773 16.6323 26.6425C17.0639 26.9079 17.5314 27.2784 18.0098 27.6593C18.9664 28.4211 19.9493 29.2475 20.9503 29.3133C21.938 29.3804 23.2657 29.4378 24.8651 29.4855C25.1831 29.495 25.6763 29.683 26.0947 30.0167C26.5132 30.3504 26.8598 30.8188 26.9656 31.3671C26.971 31.3984 26.9825 31.4283 26.9996 31.4551C27.0167 31.4818 27.0389 31.505 27.065 31.523C27.0911 31.5411 27.1206 31.5538 27.1516 31.5603C27.1827 31.5668 27.2147 31.5671 27.2459 31.5611C27.2771 31.5551 27.3067 31.5429 27.3331 31.5253C27.3596 31.5076 27.3822 31.4849 27.3997 31.4585C27.4172 31.432 27.4292 31.4022 27.4351 31.3711C27.441 31.3399 27.4406 31.3078 27.4339 31.2768C27.3013 30.5896 26.88 30.0327 26.3922 29.6438C25.9044 29.2548 25.3531 29.0231 24.8794 29.0088C23.2833 28.9612 21.9592 28.9039 20.982 28.8375C20.9819 28.8375 20.9817 28.8375 20.9815 28.8375C20.2416 28.7889 19.2641 28.0485 18.307 27.2864C17.8284 26.9053 17.3507 26.5246 16.8819 26.2365C16.4424 25.9663 16.0074 25.7696 15.5692 25.7603V25.7601Z" fill="#616161" stroke="#616161" stroke-width="0.318372"/>
<path fill-rule="evenodd" clip-rule="evenodd" d="M40.8965 28.794C40.7706 28.7945 40.6426 28.8019 40.513 28.8157C39.4766 28.9262 38.3028 29.4031 37.107 29.9974C35.9114 30.5918 34.6967 31.3074 33.6108 31.9081C32.5249 32.5088 31.5572 32.9918 30.9214 33.1255C26.0501 34.1491 23.5965 33.6255 20.3864 33.6928C20.3549 33.6932 20.3238 33.6999 20.2949 33.7124C20.266 33.7249 20.2399 33.743 20.218 33.7656C20.1961 33.7882 20.179 33.815 20.1675 33.8443C20.156 33.8736 20.1504 33.9049 20.1511 33.9364C20.1518 33.9679 20.1587 33.9989 20.1714 34.0277C20.1841 34.0565 20.2024 34.0825 20.2252 34.1042C20.248 34.1259 20.2749 34.1428 20.3043 34.1541C20.3337 34.1653 20.365 34.1707 20.3965 34.1698C23.549 34.1036 26.0844 34.6293 31.0194 33.5924C31.7787 33.4327 32.7474 32.9308 33.8417 32.3254C34.936 31.7201 36.1451 31.0083 37.3193 30.4246C38.4936 29.8409 39.6357 29.3889 40.5635 29.29C41.4914 29.1912 42.1655 29.4025 42.6011 30.1712C42.7927 30.5089 42.8371 30.8458 42.7594 31.2177C42.6817 31.5896 42.4724 31.9957 42.1408 32.4207C41.4777 33.2707 40.3326 34.1868 38.9046 35.0917C36.0487 36.9015 32.066 38.6796 28.51 40.0377C26.3818 40.8507 23.8193 40.257 20.9656 39.4814C18.1118 38.7057 14.9795 37.7603 11.713 37.9908C11.6814 37.9925 11.6504 38.0005 11.6219 38.0143C11.5934 38.0281 11.568 38.0474 11.547 38.0712C11.5261 38.0949 11.51 38.1225 11.4999 38.1525C11.4897 38.1825 11.4857 38.2142 11.4879 38.2458C11.4901 38.2774 11.4986 38.3082 11.5129 38.3365C11.5272 38.3647 11.5469 38.3899 11.571 38.4104C11.5951 38.431 11.623 38.4465 11.6531 38.4562C11.6833 38.4658 11.7151 38.4693 11.7466 38.4666C14.9 38.2441 17.9777 39.1636 20.8403 39.9416C23.703 40.7197 26.3632 41.3684 28.6802 40.4834C32.2548 39.1181 36.2541 37.3357 39.1598 35.4944C40.6127 34.5737 41.7934 33.6415 42.517 32.714C42.8788 32.2502 43.1282 31.7852 43.2263 31.3153C43.3245 30.8454 43.262 30.3698 43.0161 29.936C42.5541 29.1208 41.7777 28.79 40.8965 28.794Z" fill="#616161" stroke="#616161" stroke-width="0.318372"/>
<path fill-rule="evenodd" clip-rule="evenodd" d="M2.9728 22.0948C2.94116 22.0942 2.90974 22.1 2.88036 22.1118C2.85098 22.1235 2.82424 22.141 2.80168 22.1632C2.77913 22.1854 2.76122 22.2119 2.74899 22.2411C2.73677 22.2703 2.73047 22.3016 2.73047 22.3332C2.73047 22.3649 2.73677 22.3962 2.74899 22.4254C2.76122 22.4546 2.77913 22.481 2.80168 22.5032C2.82424 22.5254 2.85098 22.5429 2.88036 22.5547C2.90974 22.5664 2.94116 22.5722 2.9728 22.5717H6.95542C7.82217 22.5717 8.52936 23.2789 8.52936 24.1456V39.7709C8.52936 40.6377 7.82217 41.3449 6.95542 41.3449H2.9728C2.94116 41.3444 2.90974 41.3502 2.88036 41.3619C2.85098 41.3737 2.82424 41.3912 2.80168 41.4134C2.77913 41.4356 2.76122 41.462 2.74899 41.4912C2.73677 41.5204 2.73047 41.5517 2.73047 41.5834C2.73047 41.615 2.73677 41.6463 2.74899 41.6755C2.76122 41.7047 2.77913 41.7312 2.80168 41.7534C2.82424 41.7756 2.85098 41.793 2.88036 41.8048C2.90974 41.8165 2.94116 41.8223 2.9728 41.8218H6.95542C8.08232 41.8218 9.00635 40.8979 9.00635 39.7709V24.1456C9.00635 23.0187 8.08232 22.0948 6.95542 22.0948H2.9728Z" fill="#616161" stroke="#616161" stroke-width="0.318372"/>
<path fill-rule="evenodd" clip-rule="evenodd" d="M5.23867 37.3877C4.68045 37.3877 4.22754 37.8457 4.22754 38.3988C4.22754 38.9553 4.68221 39.41 5.23867 39.41C5.7918 39.41 6.24986 38.9571 6.24986 38.3988C6.24986 37.8439 5.79356 37.3877 5.23867 37.3877Z" fill="#616161" stroke="#616161" stroke-width="0.318372"/>
<path d="M26.1961 8.91992C23.6116 8.91992 21.5176 11.0133 21.5176 13.5968C21.5176 16.1803 23.6116 18.2737 26.1961 18.2737C28.7805 18.2737 30.8745 16.1803 30.8745 13.5968C30.8745 11.0133 28.7805 8.91992 26.1961 8.91992ZM25.4741 15.2539C25.42 15.3079 25.3436 15.3528 25.2762 15.3528C25.2087 15.3528 25.1322 15.3056 25.0759 15.2517L23.8163 13.9926L24.2167 13.5923L25.2784 14.6535L28.0855 11.8272L28.479 12.2342L25.4741 15.2539Z" fill="#616161"/>
<path d="M23.3254 24.0479C23.0414 24.0493 22.7602 23.9921 22.4993 23.8798L21.1396 23.3171C20.6045 23.0941 20.1795 22.6683 19.9576 22.1328C19.7357 21.5974 19.7349 20.9959 19.9554 20.4598L20.3867 19.4149C20.4036 19.3718 20.4078 19.3248 20.3987 19.2795C20.3896 19.2341 20.3677 19.1923 20.3355 19.1591C20.3025 19.1243 20.2598 19.1001 20.2129 19.0897C20.166 19.0793 20.1171 19.0831 20.0724 19.1006L19.027 19.5318C18.7606 19.6418 18.4752 19.6983 18.1869 19.698C17.8987 19.6977 17.6134 19.6406 17.3472 19.53C17.0811 19.4194 16.8394 19.2574 16.6359 19.0533C16.4324 18.8492 16.2712 18.6071 16.1614 18.3406L15.6059 16.996C15.3831 16.4592 15.3827 15.8558 15.6047 15.3187C15.8268 14.7815 16.2532 14.3545 16.7901 14.1315L17.8355 13.7003C17.8777 13.6796 17.9132 13.6473 17.9378 13.6072C17.9623 13.5671 17.975 13.5208 17.9744 13.4738C17.9765 13.4255 17.9644 13.3777 17.9398 13.3362C17.9151 13.2946 17.8789 13.2612 17.8355 13.2399L16.7901 12.8161C16.2532 12.5931 15.8268 12.1661 15.6047 11.6289C15.3827 11.0917 15.3831 10.4884 15.6059 9.9515L16.1688 8.59229C16.3933 8.05866 16.8198 7.63546 17.3553 7.41504C17.8908 7.19463 18.4917 7.19488 19.027 7.41576L20.0724 7.84691C20.1154 7.8638 20.1624 7.86797 20.2078 7.8589C20.2532 7.84983 20.295 7.82791 20.3282 7.79576C20.3631 7.76271 20.3872 7.72001 20.3977 7.67315C20.4081 7.62628 20.4043 7.57737 20.3867 7.53268L19.9554 6.48769C19.8453 6.22141 19.7888 5.93605 19.7891 5.64791C19.7894 5.35978 19.8465 5.07453 19.9572 4.80848C20.0678 4.54243 20.2299 4.3008 20.434 4.09741C20.6382 3.89401 20.8804 3.73284 21.147 3.62311L22.492 3.06773C23.0291 2.84501 23.6326 2.8446 24.17 3.06659C24.7073 3.28858 25.1345 3.71481 25.3576 4.25157L25.7889 5.29655C25.8096 5.33877 25.842 5.37422 25.8821 5.3988C25.9222 5.42338 25.9685 5.43607 26.0155 5.4354C26.0638 5.43749 26.1116 5.42547 26.1532 5.40081C26.1947 5.37615 26.2282 5.33992 26.2494 5.29655L26.6734 4.25157C26.8965 3.71481 27.3237 3.28858 27.861 3.06659C28.3984 2.8446 29.0019 2.84501 29.539 3.06773L30.8987 3.63042C31.4338 3.85347 31.8588 4.27927 32.0807 4.81472C32.3027 5.35016 32.3034 5.95167 32.0829 6.48769L31.6443 7.53268C31.6274 7.57573 31.6232 7.62273 31.6323 7.66808C31.6414 7.71343 31.6633 7.75521 31.6955 7.78845C31.7285 7.82327 31.7712 7.84744 31.8181 7.85786C31.865 7.86827 31.9139 7.86446 31.9586 7.84691L33.004 7.41576C33.2704 7.30569 33.5558 7.24919 33.8441 7.24949C34.1323 7.24979 34.4176 7.30688 34.6838 7.41751C34.9499 7.52814 35.1916 7.69013 35.3951 7.89421C35.5986 8.0983 35.7598 8.34048 35.8696 8.6069L36.4251 9.9515C36.6479 10.4884 36.6484 11.0917 36.4263 11.6289C36.2042 12.1661 35.7778 12.5931 35.2409 12.8161L34.1955 13.2472C34.1533 13.268 34.1179 13.3003 34.0933 13.3404C34.0687 13.3805 34.056 13.4267 34.0567 13.4738C34.0546 13.522 34.0666 13.5698 34.0913 13.6114C34.1159 13.6529 34.1522 13.6863 34.1955 13.7076L35.2409 14.1315C35.7778 14.3545 36.2042 14.7815 36.4263 15.3187C36.6484 15.8558 36.6479 16.4592 36.4251 16.996L35.8623 18.3552C35.6391 18.8902 35.2132 19.315 34.6775 19.5369C34.1419 19.7587 33.5402 19.7595 33.004 19.5391L31.9586 19.1079C31.9156 19.091 31.8686 19.0869 31.8232 19.0959C31.7778 19.105 31.736 19.1269 31.7028 19.1591C31.668 19.1921 31.6438 19.2348 31.6334 19.2817C31.6229 19.3286 31.6268 19.3775 31.6443 19.4222L32.0756 20.4671C32.1857 20.7334 32.2422 21.0188 32.2419 21.3069C32.2416 21.5951 32.1845 21.8803 32.0739 22.1464C31.9632 22.4124 31.8011 22.654 31.597 22.8574C31.3928 23.0608 31.1506 23.222 30.8841 23.3317L29.539 23.8871C29.0019 24.1098 28.3984 24.1102 27.861 23.8883C27.3237 23.6663 26.8965 23.24 26.6734 22.7033L26.2421 21.6583C26.2224 21.6147 26.1906 21.5777 26.1504 21.5518C26.1102 21.5259 26.0633 21.5121 26.0155 21.5121C25.9672 21.51 25.9194 21.5221 25.8779 21.5467C25.8363 21.5714 25.8029 21.6076 25.7816 21.651L25.3576 22.696C25.191 23.0973 24.9089 23.44 24.547 23.6807C24.1852 23.9214 23.76 24.0492 23.3254 24.0479ZM20.1674 17.6172C20.4474 17.6194 20.7227 17.6901 20.9692 17.823C21.2156 17.9559 21.4259 18.1471 21.5815 18.3798C21.7372 18.6125 21.8336 18.8797 21.8623 19.1582C21.8911 19.4367 21.8513 19.718 21.7464 19.9775L21.3078 21.0152C21.2708 21.1044 21.2519 21.2 21.2522 21.2966C21.2524 21.3931 21.2718 21.4886 21.3092 21.5777C21.3466 21.6667 21.4012 21.7474 21.47 21.8152C21.5388 21.8829 21.6203 21.9364 21.7098 21.9725L23.0915 22.5352C23.1807 22.5721 23.2763 22.591 23.3729 22.5908C23.4695 22.5905 23.565 22.5712 23.6541 22.5338C23.7431 22.4964 23.8239 22.4418 23.8917 22.3731C23.9595 22.3043 24.013 22.2228 24.0491 22.1333L24.4731 21.1029C24.5981 20.7953 24.8112 20.5314 25.0855 20.3442C25.3599 20.1571 25.6834 20.0549 26.0155 20.0506C26.3518 20.0486 26.681 20.1469 26.961 20.3331C27.2411 20.5193 27.4591 20.7848 27.5872 21.0956L28.0185 22.1333C28.0553 22.2222 28.1093 22.3029 28.1774 22.3709C28.2455 22.4389 28.3263 22.4927 28.4153 22.5294C28.5043 22.5661 28.5996 22.5848 28.6959 22.5845C28.7921 22.5843 28.8873 22.565 28.9761 22.5279L30.3285 21.9725C30.505 21.8952 30.6459 21.7543 30.7232 21.5779C30.7604 21.4888 30.7796 21.3931 30.7796 21.2966C30.7796 21.2 30.7604 21.1044 30.7232 21.0152L30.2919 19.9775C30.1803 19.6716 30.1585 19.3401 30.2289 19.0221C30.2993 18.7042 30.4591 18.4129 30.6895 18.1826C30.9198 17.9524 31.2112 17.7926 31.5293 17.7222C31.8473 17.6518 32.1789 17.6737 32.485 17.7853L33.523 18.2237C33.6122 18.2606 33.7079 18.2795 33.8045 18.2793C33.901 18.2791 33.9966 18.2597 34.0856 18.2223C34.1747 18.185 34.2554 18.1303 34.3232 18.0616C34.391 17.9928 34.4445 17.9113 34.4806 17.8218L35.0435 16.4699C35.0805 16.3807 35.0994 16.2851 35.0991 16.1885C35.0989 16.092 35.0795 15.9965 35.0421 15.9074C35.0047 15.8184 34.9501 15.7377 34.8813 15.6699C34.8126 15.6022 34.731 15.5487 34.6415 15.5126L33.6107 15.0887C33.3012 14.9578 33.0371 14.7386 32.8515 14.4586C32.6658 14.1785 32.5668 13.8499 32.5668 13.514C32.5668 13.178 32.6658 12.8494 32.8515 12.5694C33.0371 12.2893 33.3012 12.0701 33.6107 11.9392L34.6488 11.508C34.7403 11.4741 34.8241 11.4221 34.8952 11.3553C34.9663 11.2884 35.0233 11.208 35.0628 11.1188C35.1023 11.0296 35.1236 10.9333 35.1253 10.8358C35.127 10.7382 35.1091 10.6413 35.0728 10.5507L34.5172 9.19882C34.4398 9.02241 34.2989 8.88155 34.1224 8.8042C34.0333 8.76702 33.9376 8.74788 33.841 8.74788C33.7444 8.74788 33.6487 8.76702 33.5596 8.8042L32.5215 9.23535C32.2116 9.35187 31.8745 9.37595 31.5512 9.30469C31.2278 9.23344 30.9321 9.06989 30.6999 8.83391C30.4677 8.59793 30.309 8.29966 30.2431 7.97529C30.1772 7.65091 30.2068 7.31438 30.3285 7.00653L30.7671 5.96885C30.804 5.87966 30.8229 5.78403 30.8227 5.6875C30.8225 5.59096 30.8031 5.49543 30.7657 5.40642C30.7283 5.31741 30.6737 5.23668 30.6049 5.16891C30.5361 5.10114 30.4546 5.04766 30.365 5.01156L28.9761 4.41233C28.8869 4.3754 28.7912 4.35651 28.6947 4.35675C28.5981 4.35699 28.5025 4.37635 28.4135 4.41372C28.3244 4.4511 28.2437 4.50573 28.1759 4.57448C28.1081 4.64322 28.0546 4.72472 28.0185 4.81425L27.5945 5.84462C27.4671 6.15798 27.2484 6.42584 26.9669 6.61347C26.6853 6.80111 26.3539 6.89986 26.0155 6.89692C25.6792 6.89898 25.35 6.80062 25.07 6.61445C24.79 6.42827 24.5719 6.16276 24.4438 5.85193L24.0125 4.81425C23.9382 4.64357 23.8015 4.50769 23.6303 4.43435C23.4591 4.36101 23.2664 4.35575 23.0915 4.41964L21.7391 4.97502C21.5626 5.05236 21.4217 5.19323 21.3443 5.36963C21.3071 5.45877 21.288 5.55439 21.288 5.65097C21.288 5.74755 21.3071 5.84318 21.3443 5.93232L21.7756 6.97C21.9086 7.28548 21.9438 7.63361 21.8767 7.96932C21.8095 8.30504 21.6431 8.61287 21.399 8.85297C21.1549 9.09308 20.8443 9.2544 20.5074 9.31606C20.1705 9.37772 19.8229 9.33688 19.5095 9.19882L18.4714 8.76036C18.3822 8.72343 18.2866 8.70454 18.19 8.70478C18.0934 8.70502 17.9979 8.72438 17.9088 8.76175C17.8198 8.79912 17.739 8.85376 17.6712 8.9225C17.6034 8.99125 17.5499 9.07275 17.5138 9.16228L16.9509 10.5507C16.914 10.6399 16.8951 10.7355 16.8953 10.8321C16.8956 10.9286 16.915 11.0241 16.9523 11.1132C16.9897 11.2022 17.0444 11.2829 17.1131 11.3507C17.1819 11.4184 17.2634 11.4719 17.353 11.508L18.3837 11.9319C18.6933 12.0628 18.9573 12.282 19.143 12.5621C19.3287 12.8421 19.4277 13.1707 19.4277 13.5067C19.4277 13.8426 19.3287 14.1712 19.143 14.4512C18.9573 14.7313 18.6933 14.9505 18.3837 15.0814L17.3457 15.5126C17.2568 15.5494 17.176 15.6034 17.108 15.6714C17.04 15.7395 16.9861 15.8203 16.9494 15.9093C16.9128 15.9982 16.894 16.0935 16.8943 16.1897C16.8945 16.2859 16.9138 16.3811 16.9509 16.4699L17.5065 17.8218C17.5839 17.9982 17.7248 18.1391 17.9013 18.2164C17.9904 18.2536 18.0861 18.2727 18.1827 18.2727C18.2793 18.2727 18.375 18.2536 18.4641 18.2164L19.5022 17.7853C19.7101 17.6845 19.9365 17.6273 20.1674 17.6172Z" fill="#616161"/>
</svg>
