<svg width="18" height="18" viewBox="0 0 18 18" fill="none" xmlns="http://www.w3.org/2000/svg">
<mask id="path-1-inside-1_301_7033" fill="white">
<path fill-rule="evenodd" clip-rule="evenodd" d="M6 12C9.31371 12 12 9.31371 12 6C15.3137 6 18 8.68629 18 12C18 15.3137 15.3137 18 12 18C8.68629 18 6 15.3137 6 12ZM6 12C6 8.68629 8.68629 6 12 6C12 2.68629 9.31371 0 6 0C2.68629 0 0 2.68629 0 6C0 9.31371 2.68629 12 6 12Z"/>
</mask>
<path fill-rule="evenodd" clip-rule="evenodd" d="M6 12C9.31371 12 12 9.31371 12 6C15.3137 6 18 8.68629 18 12C18 15.3137 15.3137 18 12 18C8.68629 18 6 15.3137 6 12ZM6 12C6 8.68629 8.68629 6 12 6C12 2.68629 9.31371 0 6 0C2.68629 0 0 2.68629 0 6C0 9.31371 2.68629 12 6 12Z" fill="#C4C4C4"/>
<path d="M11 6C11 8.76142 8.76142 11 6 11V13C9.86599 13 13 9.86599 13 6H11ZM12 7C14.7614 7 17 9.23858 17 12H19C19 8.13401 15.866 5 12 5V7ZM17 12C17 14.7614 14.7614 17 12 17V19C15.866 19 19 15.866 19 12H17ZM12 17C9.23858 17 7 14.7614 7 12H5C5 15.866 8.13401 19 12 19V17ZM7 12C7 9.23858 9.23858 7 12 7V5C8.13401 5 5 8.13401 5 12H7ZM6 1C8.76142 1 11 3.23858 11 6H13C13 2.13401 9.86599 -1 6 -1V1ZM1 6C1 3.23858 3.23858 1 6 1V-1C2.13401 -1 -1 2.13401 -1 6H1ZM6 11C3.23858 11 1 8.76142 1 6H-1C-1 9.86599 2.13401 13 6 13V11Z" fill="#616161" mask="url(#path-1-inside-1_301_7033)"/>
</svg>
