<svg width="16" height="18" viewBox="0 0 16 18" fill="none" xmlns="http://www.w3.org/2000/svg">
<path fill-rule="evenodd" clip-rule="evenodd" d="M0.5 4.5C0.5 4.08579 0.835786 3.75 1.25 3.75H14.75C15.1642 3.75 15.5 4.08579 15.5 4.5C15.5 4.91421 15.1642 5.25 14.75 5.25H1.25C0.835786 5.25 0.5 4.91421 0.5 4.5Z" fill="#616161"/>
<path fill-rule="evenodd" clip-rule="evenodd" d="M6.5 2.25C6.08579 2.25 5.75 2.58579 5.75 3V4.5C5.75 4.91421 5.41421 5.25 5 5.25C4.58579 5.25 4.25 4.91421 4.25 4.5V3C4.25 1.75736 5.25736 0.75 6.5 0.75H9.5C10.7426 0.75 11.75 1.75736 11.75 3V4.5C11.75 4.91421 11.4142 5.25 11 5.25C10.5858 5.25 10.25 4.91421 10.25 4.5V3C10.25 2.58579 9.91421 2.25 9.5 2.25H6.5ZM2.75 3.75C3.16421 3.75 3.5 4.08579 3.5 4.5V15C3.5 15.4142 3.83579 15.75 4.25 15.75H11.75C12.1642 15.75 12.5 15.4142 12.5 15V4.5C12.5 4.08579 12.8358 3.75 13.25 3.75C13.6642 3.75 14 4.08579 14 4.5V15C14 16.2426 12.9926 17.25 11.75 17.25H4.25C3.00736 17.25 2 16.2426 2 15V4.5C2 4.08579 2.33579 3.75 2.75 3.75Z" fill="#616161"/>
<path fill-rule="evenodd" clip-rule="evenodd" d="M6.5 7.5C6.91421 7.5 7.25 7.83579 7.25 8.25V12.75C7.25 13.1642 6.91421 13.5 6.5 13.5C6.08579 13.5 5.75 13.1642 5.75 12.75V8.25C5.75 7.83579 6.08579 7.5 6.5 7.5Z" fill="#616161"/>
<path fill-rule="evenodd" clip-rule="evenodd" d="M9.5 7.5C9.91421 7.5 10.25 7.83579 10.25 8.25V12.75C10.25 13.1642 9.91421 13.5 9.5 13.5C9.08579 13.5 8.75 13.1642 8.75 12.75V8.25C8.75 7.83579 9.08579 7.5 9.5 7.5Z" fill="#616161"/>
</svg>
