<svg width="18" height="18" viewBox="0 0 18 18" fill="none" xmlns="http://www.w3.org/2000/svg">
<path fill-rule="evenodd" clip-rule="evenodd" d="M9.96045 1.15799C9.68962 0.947338 9.31038 0.947338 9.03955 1.15799L2.28954 6.40799C2.10685 6.55008 2 6.76856 2 7V15.25C2 15.8467 2.23705 16.419 2.65901 16.841C3.08097 17.2629 3.65326 17.5 4.25 17.5H7.25H11.75H14.75C15.3467 17.5 15.919 17.2629 16.341 16.841C16.7629 16.419 17 15.8467 17 15.25V7C17 6.76856 16.8931 6.55008 16.7105 6.40799L9.96045 1.15799ZM12.5 16H14.75C14.9489 16 15.1397 15.921 15.2803 15.7803C15.421 15.6397 15.5 15.4489 15.5 15.25V7.36681L9.5 2.70015L3.5 7.36681V15.25C3.5 15.4489 3.57902 15.6397 3.71967 15.7803C3.86032 15.921 4.05109 16 4.25 16H6.5V9.25C6.5 8.83579 6.83579 8.5 7.25 8.5H11.75C12.1642 8.5 12.5 8.83579 12.5 9.25V16ZM8 16V10H11V16H8Z" fill="#616161"/>
</svg>
