<?xml version="1.0" encoding="utf-8"?>
<!-- Generator: Adobe Illustrator 26.0.0, SVG Export Plug-In . SVG Version: 6.00 Build 0)  -->
<svg version="1.1" id="Layer_1" xmlns="http://www.w3.org/2000/svg" xmlns:xlink="http://www.w3.org/1999/xlink" x="0px" y="0px"
	 viewBox="0 0 18 18" style="enable-background:new 0 0 18 18;" xml:space="preserve">
<style type="text/css">
	.st0{fill:#FFFFFF;}
	.st1{fill:#6E6E6E;}
</style>
<rect class="st0" width="18" height="18"/>
<rect class="st0" width="18" height="18"/>
<g>
	<path class="st1" d="M8.57,8.74H8.2c-0.08,0-0.15,0.07-0.15,0.15v0.37c0,0.08,0.07,0.15,0.15,0.15h0.37c0.08,0,0.15-0.07,0.15-0.15
		V8.89C8.72,8.81,8.65,8.74,8.57,8.74z M8.65,9.26c0,0.04-0.04,0.08-0.08,0.08H8.2c-0.04,0-0.08-0.04-0.08-0.08V8.89
		c0-0.04,0.04-0.08,0.08-0.08h0.37c0.04,0,0.08,0.04,0.08,0.08V9.26z"/>
	<path class="st1" d="M9.77,9.41c0.08,0,0.15-0.07,0.15-0.15V8.89c0-0.08-0.07-0.15-0.15-0.15H9.4c-0.08,0-0.15,0.07-0.15,0.15v0.37
		c0,0.08,0.07,0.15,0.15,0.15H9.77z M9.32,9.26V8.89c0-0.04,0.04-0.08,0.08-0.08h0.37c0.04,0,0.08,0.04,0.08,0.08v0.37
		c0,0.04-0.04,0.08-0.08,0.08H9.4C9.36,9.34,9.32,9.31,9.32,9.26z"/>
	<path class="st1" d="M7.83,9.4V8.76c0-0.15,0.12-0.27,0.27-0.27h0.79v0.14h0.09V8.49h0.09V8.42H8.98V8.26H8.89v0.16H8.1
		c-0.19,0-0.34,0.15-0.34,0.34V9.4c0,0.19,0.15,0.34,0.34,0.34h0.6V9.67H8.1C7.96,9.67,7.83,9.55,7.83,9.4z"/>
	<path class="st1" d="M9.9,8.42H9.16v0.07H9.9c0.15,0,0.27,0.12,0.27,0.27V9.4c0,0.15-0.12,0.27-0.27,0.27H8.79v0.07H9.9
		c0.19,0,0.34-0.15,0.34-0.34V8.76C10.24,8.57,10.08,8.42,9.9,8.42z"/>
</g>
</svg>
