<svg xmlns="http://www.w3.org/2000/svg" xmlns:xlink="http://www.w3.org/1999/xlink" width="376" zoomAndPan="magnify" viewBox="0 0 282 56.999997" height="76" preserveAspectRatio="xMidYMid meet" version="1.0"><defs><g/><clipPath id="251a65dd7b"><path d="M 0.582031 21 L 52 21 L 52 56.546875 L 0.582031 56.546875 Z M 0.582031 21 " clip-rule="nonzero"/></clipPath><clipPath id="0da32008de"><path d="M 6 0.296875 L 56.832031 0.296875 L 56.832031 36 L 6 36 Z M 6 0.296875 " clip-rule="nonzero"/></clipPath></defs><g clip-path="url(#251a65dd7b)"><path fill="#872ff3" d="M 28.824219 37.207031 C 29.710938 37.207031 30.425781 37.921875 30.425781 38.804688 C 30.425781 39.691406 29.710938 40.40625 28.824219 40.40625 C 27.941406 40.40625 27.226562 39.691406 27.226562 38.804688 C 27.226562 37.921875 27.941406 37.207031 28.824219 37.207031 Z M 23.617188 25.792969 C 22.734375 25.792969 22.015625 25.078125 22.015625 24.195312 C 22.015625 23.308594 22.734375 22.59375 23.617188 22.59375 C 24.5 22.59375 25.21875 23.308594 25.21875 24.195312 C 25.21875 25.078125 24.5 25.792969 23.617188 25.792969 Z M 47.859375 39.023438 C 47.867188 39.011719 47.871094 39.003906 47.878906 38.992188 C 47.945312 38.871094 48.011719 38.75 48.074219 38.625 C 48.09375 38.589844 48.113281 38.558594 48.128906 38.523438 C 48.1875 38.410156 48.246094 38.300781 48.300781 38.191406 C 48.472656 37.84375 48.636719 37.492188 48.792969 37.132812 L 34.824219 23.242188 L 26.242188 23.242188 C 25.851562 22.167969 24.824219 21.402344 23.617188 21.402344 C 22.074219 21.402344 20.824219 22.652344 20.824219 24.195312 C 20.824219 25.734375 22.074219 26.984375 23.617188 26.984375 C 24.789062 26.984375 25.792969 26.261719 26.207031 25.238281 L 33.996094 25.238281 L 43.761719 34.945312 C 41.238281 40.757812 35.445312 44.824219 28.707031 44.824219 C 20.914062 44.824219 14.394531 39.394531 12.71875 32.113281 L 20.410156 39.757812 L 26.199219 39.757812 C 26.589844 40.832031 27.617188 41.597656 28.824219 41.597656 C 30.367188 41.597656 31.617188 40.347656 31.617188 38.804688 C 31.617188 37.265625 30.367188 36.015625 28.824219 36.015625 C 27.652344 36.015625 26.648438 36.738281 26.238281 37.761719 L 21.234375 37.761719 L 6.429688 23.039062 L 4.175781 23.613281 L 0.859375 24.460938 C 0.675781 25.757812 0.582031 27.078125 0.582031 28.421875 C 0.582031 29.765625 0.675781 31.085938 0.859375 32.378906 L 7.554688 34.09375 C 8.054688 35.960938 8.796875 37.726562 9.742188 39.363281 L 6.214844 45.3125 C 7.808594 47.429688 9.695312 49.316406 11.816406 50.910156 L 17.765625 47.386719 C 19.402344 48.332031 21.167969 49.070312 23.035156 49.570312 L 24.746094 56.269531 C 26.039062 56.449219 27.363281 56.546875 28.707031 56.546875 C 30.050781 56.546875 31.371094 56.449219 32.664062 56.269531 L 34.378906 49.570312 C 36.246094 49.070312 38.011719 48.332031 39.644531 47.386719 L 45.597656 50.910156 C 47.714844 49.316406 49.601562 47.429688 51.195312 45.3125 L 47.667969 39.363281 C 47.734375 39.25 47.796875 39.136719 47.859375 39.023438 " fill-opacity="1" fill-rule="nonzero"/></g><g clip-path="url(#0da32008de)"><path fill="#38b6ff" d="M 28.585938 19.636719 C 27.703125 19.636719 26.984375 18.917969 26.984375 18.035156 C 26.984375 17.152344 27.703125 16.433594 28.585938 16.433594 C 29.46875 16.433594 30.1875 17.152344 30.1875 18.035156 C 30.1875 18.917969 29.46875 19.636719 28.585938 19.636719 Z M 33.796875 31.046875 C 34.679688 31.046875 35.394531 31.765625 35.394531 32.648438 C 35.394531 33.53125 34.679688 34.25 33.796875 34.25 C 32.910156 34.25 32.195312 33.53125 32.195312 32.648438 C 32.195312 31.765625 32.910156 31.046875 33.796875 31.046875 Z M 56.550781 24.460938 L 49.855469 22.75 C 49.355469 20.882812 48.613281 19.117188 47.667969 17.480469 L 51.195312 11.53125 C 49.601562 9.410156 47.714844 7.527344 45.597656 5.933594 L 39.644531 9.457031 C 38.011719 8.511719 36.246094 7.769531 34.378906 7.273438 L 32.664062 0.574219 C 31.371094 0.394531 30.050781 0.296875 28.707031 0.296875 C 27.363281 0.296875 26.039062 0.394531 24.746094 0.574219 L 23.035156 7.273438 C 21.167969 7.769531 19.402344 8.511719 17.765625 9.457031 L 11.816406 5.933594 C 9.695312 7.527344 7.808594 9.410156 6.214844 11.53125 L 9.742188 17.480469 C 9.675781 17.59375 9.613281 17.707031 9.550781 17.820312 C 9.546875 17.828125 9.542969 17.839844 9.535156 17.847656 C 9.46875 17.96875 9.402344 18.09375 9.335938 18.21875 C 9.316406 18.25 9.300781 18.285156 9.28125 18.320312 C 9.222656 18.429688 9.167969 18.542969 9.109375 18.65625 C 8.9375 19 8.773438 19.351562 8.617188 19.710938 L 22.585938 33.601562 L 31.171875 33.601562 C 31.558594 34.671875 32.585938 35.441406 33.796875 35.441406 C 35.335938 35.441406 36.585938 34.191406 36.585938 32.648438 C 36.585938 31.105469 35.335938 29.855469 33.796875 29.855469 C 32.625 29.855469 31.621094 30.578125 31.207031 31.601562 L 23.414062 31.601562 L 13.652344 21.894531 C 16.175781 16.082031 21.964844 12.015625 28.707031 12.015625 C 36.496094 12.015625 43.019531 17.449219 44.691406 24.730469 L 37.003906 17.085938 L 31.210938 17.085938 C 30.820312 16.011719 29.792969 15.246094 28.585938 15.246094 C 27.042969 15.246094 25.792969 16.492188 25.792969 18.035156 C 25.792969 19.578125 27.042969 20.828125 28.585938 20.828125 C 29.757812 20.828125 30.761719 20.105469 31.175781 19.082031 L 36.175781 19.082031 L 50.984375 33.804688 L 52.175781 33.5 L 56.550781 32.378906 C 56.734375 31.085938 56.832031 29.765625 56.832031 28.421875 C 56.832031 27.078125 56.734375 25.757812 56.550781 24.460938 " fill-opacity="1" fill-rule="nonzero"/></g><g fill="#38b6ff" fill-opacity="1"><g transform="translate(59.511836, 37.880854)"><g><path d="M 10.4375 0.359375 C 9.132812 0.359375 7.796875 0.222656 6.421875 -0.046875 C 5.046875 -0.316406 3.863281 -0.695312 2.875 -1.1875 C 2.300781 -1.457031 1.894531 -1.828125 1.65625 -2.296875 C 1.425781 -2.773438 1.34375 -3.265625 1.40625 -3.765625 C 1.46875 -4.265625 1.648438 -4.710938 1.953125 -5.109375 C 2.253906 -5.503906 2.648438 -5.769531 3.140625 -5.90625 C 3.628906 -6.039062 4.179688 -5.972656 4.796875 -5.703125 C 5.609375 -5.296875 6.523438 -4.988281 7.546875 -4.78125 C 8.578125 -4.582031 9.539062 -4.484375 10.4375 -4.484375 C 11.84375 -4.484375 12.828125 -4.664062 13.390625 -5.03125 C 13.953125 -5.40625 14.234375 -5.875 14.234375 -6.4375 C 14.234375 -6.925781 14.035156 -7.316406 13.640625 -7.609375 C 13.253906 -7.910156 12.554688 -8.171875 11.546875 -8.390625 L 7.8125 -9.1875 C 3.757812 -10.0625 1.734375 -12.179688 1.734375 -15.546875 C 1.734375 -17.023438 2.128906 -18.316406 2.921875 -19.421875 C 3.722656 -20.535156 4.835938 -21.394531 6.265625 -22 C 7.703125 -22.601562 9.367188 -22.90625 11.265625 -22.90625 C 12.367188 -22.90625 13.492188 -22.78125 14.640625 -22.53125 C 15.785156 -22.289062 16.769531 -21.925781 17.59375 -21.4375 C 18.238281 -21.09375 18.644531 -20.628906 18.8125 -20.046875 C 18.988281 -19.460938 18.96875 -18.890625 18.75 -18.328125 C 18.539062 -17.773438 18.160156 -17.367188 17.609375 -17.109375 C 17.066406 -16.859375 16.378906 -16.90625 15.546875 -17.25 C 14.910156 -17.519531 14.207031 -17.722656 13.4375 -17.859375 C 12.664062 -18.003906 11.921875 -18.078125 11.203125 -18.078125 C 10.003906 -18.078125 9.082031 -17.867188 8.4375 -17.453125 C 7.800781 -17.035156 7.484375 -16.5 7.484375 -15.84375 C 7.484375 -15.375 7.675781 -14.988281 8.0625 -14.6875 C 8.445312 -14.382812 9.128906 -14.128906 10.109375 -13.921875 L 13.828125 -13.125 C 17.941406 -12.25 20 -10.175781 20 -6.90625 C 20 -5.4375 19.601562 -4.15625 18.8125 -3.0625 C 18.019531 -1.976562 16.910156 -1.132812 15.484375 -0.53125 C 14.054688 0.0625 12.375 0.359375 10.4375 0.359375 Z M 10.4375 0.359375 "/></g></g></g><g fill="#38b6ff" fill-opacity="1"><g transform="translate(81.682702, 37.880854)"><g><path d="M 5.125 0 C 3.070312 0 2.046875 -1.015625 2.046875 -3.046875 L 2.046875 -19.515625 C 2.046875 -21.546875 3.070312 -22.5625 5.125 -22.5625 L 15.96875 -22.5625 C 17.5 -22.5625 18.265625 -21.8125 18.265625 -20.3125 C 18.265625 -18.78125 17.5 -18.015625 15.96875 -18.015625 L 7.6875 -18.015625 L 7.6875 -13.734375 L 15.265625 -13.734375 C 16.796875 -13.734375 17.5625 -12.972656 17.5625 -11.453125 C 17.5625 -9.941406 16.796875 -9.1875 15.265625 -9.1875 L 7.6875 -9.1875 L 7.6875 -4.546875 L 15.96875 -4.546875 C 17.5 -4.546875 18.265625 -3.785156 18.265625 -2.265625 C 18.265625 -0.753906 17.5 0 15.96875 0 Z M 5.125 0 "/></g></g></g><g fill="#38b6ff" fill-opacity="1"><g transform="translate(102.66986, 37.880854)"><g><path d="M 4.984375 0.28125 C 4.046875 0.28125 3.320312 0.0234375 2.8125 -0.484375 C 2.300781 -0.992188 2.046875 -1.726562 2.046875 -2.6875 L 2.046875 -19.578125 C 2.046875 -20.546875 2.300781 -21.285156 2.8125 -21.796875 C 3.320312 -22.304688 4.0625 -22.5625 5.03125 -22.5625 L 12.890625 -22.5625 C 15.453125 -22.5625 17.429688 -21.9375 18.828125 -20.6875 C 20.222656 -19.4375 20.921875 -17.703125 20.921875 -15.484375 C 20.921875 -13.796875 20.5 -12.378906 19.65625 -11.234375 C 18.820312 -10.097656 17.601562 -9.304688 16 -8.859375 C 17.195312 -8.546875 18.15625 -7.726562 18.875 -6.40625 L 20.484375 -3.515625 C 20.816406 -2.878906 20.96875 -2.269531 20.9375 -1.6875 C 20.90625 -1.113281 20.675781 -0.640625 20.25 -0.265625 C 19.820312 0.0976562 19.195312 0.28125 18.375 0.28125 C 17.539062 0.28125 16.859375 0.117188 16.328125 -0.203125 C 15.804688 -0.535156 15.34375 -1.078125 14.9375 -1.828125 L 12.03125 -7.171875 C 11.769531 -7.640625 11.441406 -7.960938 11.046875 -8.140625 C 10.660156 -8.328125 10.210938 -8.421875 9.703125 -8.421875 L 7.9375 -8.421875 L 7.9375 -2.6875 C 7.9375 -1.726562 7.6875 -0.992188 7.1875 -0.484375 C 6.6875 0.0234375 5.953125 0.28125 4.984375 0.28125 Z M 7.9375 -12.578125 L 11.84375 -12.578125 C 14.164062 -12.578125 15.328125 -13.492188 15.328125 -15.328125 C 15.328125 -17.140625 14.164062 -18.046875 11.84375 -18.046875 L 7.9375 -18.046875 Z M 7.9375 -12.578125 "/></g></g></g><g fill="#38b6ff" fill-opacity="1"><g transform="translate(126.600289, 37.880854)"><g><path d="M 11.90625 0.28125 C 11.09375 0.28125 10.4375 0.113281 9.9375 -0.21875 C 9.4375 -0.5625 9.015625 -1.109375 8.671875 -1.859375 L 0.921875 -18.9375 C 0.585938 -19.6875 0.484375 -20.359375 0.609375 -20.953125 C 0.734375 -21.554688 1.03125 -22.019531 1.5 -22.34375 C 1.96875 -22.675781 2.554688 -22.84375 3.265625 -22.84375 C 4.117188 -22.84375 4.769531 -22.648438 5.21875 -22.265625 C 5.664062 -21.890625 6.050781 -21.328125 6.375 -20.578125 L 12 -7.515625 L 17.625 -20.609375 C 17.945312 -21.359375 18.332031 -21.914062 18.78125 -22.28125 C 19.226562 -22.65625 19.859375 -22.84375 20.671875 -22.84375 C 21.328125 -22.84375 21.878906 -22.671875 22.328125 -22.328125 C 22.785156 -21.992188 23.070312 -21.53125 23.1875 -20.9375 C 23.300781 -20.351562 23.1875 -19.6875 22.84375 -18.9375 L 15.078125 -1.859375 C 14.753906 -1.109375 14.34375 -0.5625 13.84375 -0.21875 C 13.34375 0.113281 12.695312 0.28125 11.90625 0.28125 Z M 11.90625 0.28125 "/></g></g></g><g fill="#38b6ff" fill-opacity="1"><g transform="translate(151.68244, 37.880854)"><g><path d="M 4.984375 0.28125 C 4.046875 0.28125 3.320312 0.0234375 2.8125 -0.484375 C 2.300781 -0.992188 2.046875 -1.738281 2.046875 -2.71875 L 2.046875 -19.84375 C 2.046875 -20.820312 2.300781 -21.566406 2.8125 -22.078125 C 3.320312 -22.585938 4.046875 -22.84375 4.984375 -22.84375 C 5.929688 -22.84375 6.660156 -22.585938 7.171875 -22.078125 C 7.679688 -21.566406 7.9375 -20.820312 7.9375 -19.84375 L 7.9375 -2.71875 C 7.9375 -1.738281 7.6875 -0.992188 7.1875 -0.484375 C 6.6875 0.0234375 5.953125 0.28125 4.984375 0.28125 Z M 4.984375 0.28125 "/></g></g></g><g fill="#38b6ff" fill-opacity="1"><g transform="translate(163.00797, 37.880854)"><g><path d="M 13.4375 0.359375 C 10.945312 0.359375 8.800781 -0.117188 7 -1.078125 C 5.207031 -2.046875 3.835938 -3.40625 2.890625 -5.15625 C 1.941406 -6.90625 1.46875 -8.953125 1.46875 -11.296875 C 1.46875 -13.640625 1.941406 -15.679688 2.890625 -17.421875 C 3.835938 -19.160156 5.207031 -20.507812 7 -21.46875 C 8.800781 -22.425781 10.945312 -22.90625 13.4375 -22.90625 C 14.414062 -22.90625 15.429688 -22.789062 16.484375 -22.5625 C 17.546875 -22.34375 18.484375 -22.007812 19.296875 -21.5625 C 19.890625 -21.25 20.300781 -20.84375 20.53125 -20.34375 C 20.769531 -19.851562 20.859375 -19.351562 20.796875 -18.84375 C 20.734375 -18.332031 20.546875 -17.875 20.234375 -17.46875 C 19.929688 -17.0625 19.546875 -16.789062 19.078125 -16.65625 C 18.609375 -16.519531 18.09375 -16.585938 17.53125 -16.859375 C 16.269531 -17.484375 14.976562 -17.796875 13.65625 -17.796875 C 11.675781 -17.796875 10.1875 -17.234375 9.1875 -16.109375 C 8.1875 -14.992188 7.6875 -13.390625 7.6875 -11.296875 C 7.6875 -9.179688 8.1875 -7.5625 9.1875 -6.4375 C 10.1875 -5.320312 11.675781 -4.765625 13.65625 -4.765625 C 14.21875 -4.765625 14.816406 -4.832031 15.453125 -4.96875 C 16.097656 -5.113281 16.726562 -5.332031 17.34375 -5.625 C 17.976562 -5.90625 18.546875 -5.976562 19.046875 -5.84375 C 19.554688 -5.71875 19.96875 -5.460938 20.28125 -5.078125 C 20.601562 -4.703125 20.800781 -4.265625 20.875 -3.765625 C 20.945312 -3.265625 20.878906 -2.765625 20.671875 -2.265625 C 20.460938 -1.773438 20.066406 -1.382812 19.484375 -1.09375 C 18.742188 -0.644531 17.820312 -0.289062 16.71875 -0.03125 C 15.625 0.226562 14.53125 0.359375 13.4375 0.359375 Z M 13.4375 0.359375 "/></g></g></g><g fill="#38b6ff" fill-opacity="1"><g transform="translate(186.362544, 37.880854)"><g><path d="M 5.125 0 C 3.070312 0 2.046875 -1.015625 2.046875 -3.046875 L 2.046875 -19.515625 C 2.046875 -21.546875 3.070312 -22.5625 5.125 -22.5625 L 15.96875 -22.5625 C 17.5 -22.5625 18.265625 -21.8125 18.265625 -20.3125 C 18.265625 -18.78125 17.5 -18.015625 15.96875 -18.015625 L 7.6875 -18.015625 L 7.6875 -13.734375 L 15.265625 -13.734375 C 16.796875 -13.734375 17.5625 -12.972656 17.5625 -11.453125 C 17.5625 -9.941406 16.796875 -9.1875 15.265625 -9.1875 L 7.6875 -9.1875 L 7.6875 -4.546875 L 15.96875 -4.546875 C 17.5 -4.546875 18.265625 -3.785156 18.265625 -2.265625 C 18.265625 -0.753906 17.5 0 15.96875 0 Z M 5.125 0 "/></g></g></g><g fill="#38b6ff" fill-opacity="1"><g transform="translate(207.349702, 37.880854)"><g><path d="M 13.4375 0.359375 C 10.945312 0.359375 8.800781 -0.117188 7 -1.078125 C 5.207031 -2.046875 3.835938 -3.40625 2.890625 -5.15625 C 1.941406 -6.90625 1.46875 -8.953125 1.46875 -11.296875 C 1.46875 -13.640625 1.941406 -15.679688 2.890625 -17.421875 C 3.835938 -19.160156 5.207031 -20.507812 7 -21.46875 C 8.800781 -22.425781 10.945312 -22.90625 13.4375 -22.90625 C 14.414062 -22.90625 15.429688 -22.789062 16.484375 -22.5625 C 17.546875 -22.34375 18.484375 -22.007812 19.296875 -21.5625 C 19.890625 -21.25 20.300781 -20.84375 20.53125 -20.34375 C 20.769531 -19.851562 20.859375 -19.351562 20.796875 -18.84375 C 20.734375 -18.332031 20.546875 -17.875 20.234375 -17.46875 C 19.929688 -17.0625 19.546875 -16.789062 19.078125 -16.65625 C 18.609375 -16.519531 18.09375 -16.585938 17.53125 -16.859375 C 16.269531 -17.484375 14.976562 -17.796875 13.65625 -17.796875 C 11.675781 -17.796875 10.1875 -17.234375 9.1875 -16.109375 C 8.1875 -14.992188 7.6875 -13.390625 7.6875 -11.296875 C 7.6875 -9.179688 8.1875 -7.5625 9.1875 -6.4375 C 10.1875 -5.320312 11.675781 -4.765625 13.65625 -4.765625 C 14.21875 -4.765625 14.816406 -4.832031 15.453125 -4.96875 C 16.097656 -5.113281 16.726562 -5.332031 17.34375 -5.625 C 17.976562 -5.90625 18.546875 -5.976562 19.046875 -5.84375 C 19.554688 -5.71875 19.96875 -5.460938 20.28125 -5.078125 C 20.601562 -4.703125 20.800781 -4.265625 20.875 -3.765625 C 20.945312 -3.265625 20.878906 -2.765625 20.671875 -2.265625 C 20.460938 -1.773438 20.066406 -1.382812 19.484375 -1.09375 C 18.742188 -0.644531 17.820312 -0.289062 16.71875 -0.03125 C 15.625 0.226562 14.53125 0.359375 13.4375 0.359375 Z M 13.4375 0.359375 "/></g></g></g><g fill="#38b6ff" fill-opacity="1"><g transform="translate(230.704276, 37.880854)"><g><path d="M 4.984375 0.28125 C 4.046875 0.28125 3.320312 0.0234375 2.8125 -0.484375 C 2.300781 -0.992188 2.046875 -1.726562 2.046875 -2.6875 L 2.046875 -19.578125 C 2.046875 -20.546875 2.300781 -21.285156 2.8125 -21.796875 C 3.320312 -22.304688 4.0625 -22.5625 5.03125 -22.5625 L 12.890625 -22.5625 C 15.453125 -22.5625 17.429688 -21.90625 18.828125 -20.59375 C 20.222656 -19.28125 20.921875 -17.472656 20.921875 -15.171875 C 20.921875 -12.867188 20.222656 -11.0625 18.828125 -9.75 C 17.429688 -8.4375 15.453125 -7.78125 12.890625 -7.78125 L 7.9375 -7.78125 L 7.9375 -2.6875 C 7.9375 -1.726562 7.6875 -0.992188 7.1875 -0.484375 C 6.6875 0.0234375 5.953125 0.28125 4.984375 0.28125 Z M 7.9375 -12.28125 L 11.875 -12.28125 C 14.175781 -12.28125 15.328125 -13.242188 15.328125 -15.171875 C 15.328125 -17.085938 14.175781 -18.046875 11.875 -18.046875 L 7.9375 -18.046875 Z M 7.9375 -12.28125 "/></g></g></g><g fill="#38b6ff" fill-opacity="1"><g transform="translate(253.674935, 37.880854)"><g><path d="M 22.59375 2.84375 C 22.976562 3.488281 23.113281 4.070312 23 4.59375 C 22.894531 5.113281 22.632812 5.554688 22.21875 5.921875 C 21.800781 6.285156 21.3125 6.519531 20.75 6.625 C 20.1875 6.726562 19.625 6.675781 19.0625 6.46875 C 18.507812 6.269531 18.054688 5.863281 17.703125 5.25 L 15.328125 1.4375 C 14.878906 0.71875 14.066406 0.359375 12.890625 0.359375 C 10.609375 0.359375 8.609375 -0.125 6.890625 -1.09375 C 5.171875 -2.070312 3.835938 -3.4375 2.890625 -5.1875 C 1.941406 -6.9375 1.46875 -8.972656 1.46875 -11.296875 C 1.46875 -13.640625 1.941406 -15.679688 2.890625 -17.421875 C 3.835938 -19.160156 5.175781 -20.507812 6.90625 -21.46875 C 8.632812 -22.425781 10.640625 -22.90625 12.921875 -22.90625 C 15.210938 -22.90625 17.210938 -22.425781 18.921875 -21.46875 C 20.640625 -20.507812 21.976562 -19.160156 22.9375 -17.421875 C 23.90625 -15.679688 24.390625 -13.640625 24.390625 -11.296875 C 24.390625 -8.953125 23.898438 -6.898438 22.921875 -5.140625 C 21.953125 -3.378906 20.601562 -2.03125 18.875 -1.09375 C 19.925781 -0.789062 20.769531 -0.109375 21.40625 0.953125 Z M 12.921875 -4.578125 C 14.585938 -4.578125 15.894531 -5.164062 16.84375 -6.34375 C 17.789062 -7.53125 18.265625 -9.179688 18.265625 -11.296875 C 18.265625 -13.410156 17.796875 -15.050781 16.859375 -16.21875 C 15.921875 -17.394531 14.609375 -17.984375 12.921875 -17.984375 C 11.242188 -17.984375 9.929688 -17.394531 8.984375 -16.21875 C 8.046875 -15.050781 7.578125 -13.410156 7.578125 -11.296875 C 7.578125 -9.179688 8.046875 -7.53125 8.984375 -6.34375 C 9.929688 -5.164062 11.242188 -4.578125 12.921875 -4.578125 Z M 12.921875 -4.578125 "/></g></g></g></svg>