<svg xmlns="http://www.w3.org/2000/svg" viewBox="0 0 1299.93 258.91"><defs><style>.cls-1{fill:#fff;}</style></defs><g id="Layer_2" data-name="Layer 2"><g id="Layer_1-2" data-name="Layer 1"><path class="cls-1" d="M1160.39,215.55V164.37A88.46,88.46,0,0,0,1248.75,76h51.18c0,76.94-62.6,139.54-139.54,139.54Z"/><polygon class="cls-1" points="1178.25 76.01 1213.09 0 1282.99 0 1248.15 76.01 1178.25 76.01"/><path class="cls-1" d="M18.46,216.77A147.23,147.23,0,0,1,.67,210.66V181.53q18,13.56,37.8,13.56,7.56,0,11-2.56a8.26,8.26,0,0,0,3.45-7q0-5.11-5.56-7.56t-17.79-5.34Q16.68,170,8.34,162T0,138.61Q0,125.5,6.67,117A38.68,38.68,0,0,1,23.46,104.7a58.11,58.11,0,0,1,21-3.89q13.34,0,21.68,2.33a64.87,64.87,0,0,1,16.34,7.23v26q-11.34-6.22-17.57-8.89a36.42,36.42,0,0,0-14.45-2.67q-8.22,0-12.23,2.56a8.1,8.1,0,0,0-4,7.23,8.68,8.68,0,0,0,4.45,8.12q4.44,2.56,14.23,5.23a127.53,127.53,0,0,1,17.57,5.67,29.08,29.08,0,0,1,11.56,9.56q5.11,6.78,5.11,19-.45,19.13-14.45,27.91T37.13,218.9a74.09,74.09,0,0,1-18.68-2.11Z"/><path class="cls-1" d="M212.81,168H138.54q4.22,23.35,31.35,23.35A56.43,56.43,0,0,0,186,189a158,158,0,0,0,16.79-6.11v28.46q-18.24,7.56-40.91,7.56-17.13,0-30-7a48.92,48.92,0,0,1-20-20.12q-7.11-13.11-7.11-30.91,0-29.35,14.57-45.47t41.47-16.12q52.69,0,52,68.71Zm-74.49-21.12H179.9q-1.56-12-6.34-17.12t-14.12-5.11q-17.79,0-21.12,22.24Z"/><path class="cls-1" d="M235.93,114.82q3.33-2.89,11.68-6.45a122.59,122.59,0,0,1,18.68-6.11,83.09,83.09,0,0,1,19.9-2.56q18.45,0,25.57,5.56V129.5q-8.89-2-25.57-2a107.65,107.65,0,0,0-17.12,1.11v86.94H235.94V114.82Z"/><path class="cls-1" d="M449,103,402,215.54H368.9L322,103h35.8l29.8,76.05L414,103Z"/><path class="cls-1" d="M469.18,62.12h34.24V87.69H469.18Zm.67,42.47H503l.22,111H469.85Z"/><path class="cls-1" d="M555.68,212a49.8,49.8,0,0,1-21.24-19.46q-7.89-13-7.89-31.69,0-30,16-45.47t42.69-15.45a97.3,97.3,0,0,1,18.9,1.89,76.55,76.55,0,0,1,16.9,5.23V135.5a141.39,141.39,0,0,0-16.23-6.12,49.77,49.77,0,0,0-14.23-2.11q-14.69,0-22.9,7.23t-8.23,22.57q0,17.13,7.67,25.35t25,8.23q13.11,0,29.13-8.89V210a72.67,72.67,0,0,1-16.57,6.34,80.37,80.37,0,0,1-19.23,2.11,67.6,67.6,0,0,1-29.8-6.45Z"/><path class="cls-1" d="M746.24,168H672q4.21,23.35,31.35,23.35A56.43,56.43,0,0,0,719.44,189a158,158,0,0,0,16.79-6.11v28.46q-18.24,7.56-40.91,7.56-17.13,0-30-7a48.92,48.92,0,0,1-20-20.12q-7.11-13.11-7.11-30.91,0-29.35,14.57-45.47t41.47-16.12q52.69,0,52,68.71Zm-74.49-21.12h41.58q-1.56-12-6.34-17.12t-14.12-5.11q-17.79,0-21.12,22.24Z"/><path class="cls-1" d="M792.27,212A49.8,49.8,0,0,1,771,192.53q-7.89-13-7.89-31.69,0-30,16-45.47t42.69-15.45a97.3,97.3,0,0,1,18.9,1.89,76.55,76.55,0,0,1,16.9,5.23V135.5a141.39,141.39,0,0,0-16.23-6.12,49.77,49.77,0,0,0-14.23-2.11q-14.68,0-22.9,7.23t-8.23,22.57q0,17.13,7.67,25.35t25,8.23q13.11,0,29.13-8.89V210a72.67,72.67,0,0,1-16.57,6.34,80.37,80.37,0,0,1-19.23,2.11,67.6,67.6,0,0,1-29.8-6.45Z"/><path class="cls-1" d="M976.61,113.37q14.89,14.13,14.9,47,0,26.46-13.34,42.47t-36.47,16q-16.91,0-28.24-6V255.8H881v-129q0-13.56,15-20.46t38.58-7.12Q961.71,99.25,976.61,113.37Zm-24.68,71.27q6.45-7.56,6.45-25.35,0-16-5.67-24.13T933.25,127q-19.8,0-19.79,7.56v52.92a29.42,29.42,0,0,0,8.89,3.56,43.14,43.14,0,0,0,9.56,1.11q13.56,0,20-7.56Z"/><path class="cls-1" d="M1118.92,131.27V258.91h-32.47v-46.7q-10.23,6.67-26.68,6.67-24.68,0-38-14.9t-13.34-42.47q0-33.13,15.79-47.36t44.25-14.23q50.47,0,50.48,31.35Zm-70.38,53q7.21,7.9,19.46,7.89a35.26,35.26,0,0,0,18.46-4.67V137.71q0-4.89-5.34-7.56a29.13,29.13,0,0,0-13.12-2.67q-14,0-20.35,8.34t-6.34,23.68q0,16.91,7.23,24.79Z"/></g></g></svg>