<?xml version="1.0" encoding="utf-8"?>
<!-- Generator: Adobe Illustrator 26.0.0, SVG Export Plug-In . SVG Version: 6.00 Build 0)  -->
<svg version="1.1" id="Layer_1" xmlns="http://www.w3.org/2000/svg" xmlns:xlink="http://www.w3.org/1999/xlink" x="0px" y="0px"
	 viewBox="0 0 1299.9 258.9" style="enable-background:new 0 0 1299.9 258.9;" xml:space="preserve">
<style type="text/css">
	.st0{fill:#FFFFFF;}
</style>
<g>
	<g>
		<path class="st0" d="M1160.4,215.6v-51.2c48.7,0,88.4-39.6,88.4-88.4h51.2C1299.9,152.9,1237.3,215.5,1160.4,215.6L1160.4,215.6z"
			/>
		<polygon class="st0" points="1178.2,76 1213.1,0 1283,0 1248.1,76 		"/>
	</g>
</g>
<g>
	<path class="st0" d="M18.5,216.8c-5.3-1.4-11.3-3.4-17.8-6.1v-29.1c12,9,24.6,13.6,37.8,13.6c5,0,8.7-0.9,11-2.6
		c2.3-1.7,3.5-4,3.5-7c0-3.4-1.9-5.9-5.6-7.6c-3.7-1.6-9.6-3.4-17.8-5.3c-8.6-1.8-15.7-5.3-21.2-10.7C2.8,156.6,0,148.8,0,138.6
		c0-8.7,2.2-15.9,6.7-21.6c4.4-5.6,10-9.8,16.8-12.3c6.7-2.6,13.8-3.9,21-3.9c8.9,0,16.1,0.8,21.7,2.3c5.6,1.6,11,4,16.3,7.2v26
		c-7.6-4.1-13.4-7.1-17.6-8.9s-9-2.7-14.5-2.7s-9.6,0.9-12.2,2.6c-2.7,1.7-4,4.1-4,7.2c0,3.7,1.5,6.4,4.5,8.1
		c3,1.7,7.7,3.4,14.2,5.2c7.4,1.9,13.3,3.8,17.6,5.7c4.3,1.9,8.2,5,11.6,9.6c3.4,4.5,5.1,10.9,5.1,19c-0.3,12.8-5.1,22.1-14.4,27.9
		c-9.3,5.9-21.2,8.8-35.6,8.8C30,218.9,23.8,218.2,18.5,216.8L18.5,216.8z"/>
	<path class="st0" d="M212.8,168h-74.3c2.8,15.6,13.3,23.4,31.4,23.4c5.5,0,10.9-0.8,16.1-2.3s10.9-3.6,16.8-6.1v28.5
		c-12.2,5-25.8,7.6-40.9,7.6c-11.4,0-21.4-2.3-30-7s-15.3-11.4-20-20.1c-4.7-8.7-7.1-19.1-7.1-30.9c0-19.6,4.8-34.7,14.6-45.5
		c9.7-10.8,23.5-16.1,41.5-16.1C195.9,99.3,213.3,122.2,212.8,168L212.8,168z M138.3,146.8h41.6c-1-8-3.1-13.7-6.3-17.1
		c-3.2-3.4-7.9-5.1-14.1-5.1C147.6,124.6,140.5,132,138.3,146.8L138.3,146.8z"/>
	<path class="st0" d="M235.9,114.8c2.2-1.9,6.1-4.1,11.7-6.4c5.6-2.4,11.8-4.4,18.7-6.1c6.9-1.7,13.5-2.6,19.9-2.6
		c12.3,0,20.8,1.9,25.6,5.6v24.2c-5.9-1.3-14.5-2-25.6-2c-7,0-12.7,0.4-17.1,1.1v86.9h-33.1L235.9,114.8L235.9,114.8z"/>
	<path class="st0" d="M448.9,103L402,215.5h-33.1L322,103h35.8l29.8,76.1L414,103L448.9,103L448.9,103z"/>
	<path class="st0" d="M469.2,62.1h34.2v25.6h-34.2C469.2,87.7,469.2,62.1,469.2,62.1z M469.8,104.6H503l0.2,111h-33.4V104.6z"/>
	<path class="st0" d="M555.7,212c-8.9-4.3-16-10.8-21.2-19.5c-5.3-8.7-7.9-19.2-7.9-31.7c0-20,5.3-35.2,16-45.5s24.9-15.4,42.7-15.4
		c6.2,0,12.5,0.6,18.9,1.9c6.4,1.3,12,3,16.9,5.2v28.5c-6.1-2.7-11.5-4.7-16.2-6.1c-4.8-1.4-9.5-2.1-14.2-2.1
		c-9.8,0-17.4,2.4-22.9,7.2c-5.5,4.8-8.2,12.3-8.2,22.6c0,11.4,2.6,19.9,7.7,25.4c5.1,5.5,13.5,8.2,25,8.2c8.7,0,18.5-3,29.1-8.9
		V210c-5.3,2.8-10.9,4.9-16.6,6.3s-12.1,2.1-19.2,2.1C574.5,218.5,564.6,216.3,555.7,212L555.7,212z"/>
	<path class="st0" d="M746.2,168H672c2.8,15.6,13.3,23.4,31.3,23.4c5.5,0,10.9-0.8,16.1-2.3s10.9-3.6,16.8-6.1v28.5
		c-12.2,5-25.8,7.6-40.9,7.6c-11.4,0-21.4-2.3-30-7c-8.6-4.7-15.3-11.4-20-20.1c-4.7-8.7-7.1-19.1-7.1-30.9
		c0-19.6,4.8-34.7,14.6-45.5c9.7-10.8,23.5-16.1,41.5-16.1C729.3,99.3,746.7,122.2,746.2,168L746.2,168z M671.7,146.8h41.6
		c-1-8-3.2-13.7-6.3-17.1c-3.2-3.4-7.9-5.1-14.1-5.1C681,124.6,674,132,671.7,146.8L671.7,146.8z"/>
	<path class="st0" d="M792.3,212c-8.9-4.3-16-10.8-21.2-19.5c-5.3-8.7-7.9-19.2-7.9-31.7c0-20,5.3-35.2,16-45.5s24.9-15.4,42.7-15.4
		c6.2,0,12.5,0.6,18.9,1.9c6.4,1.3,12,3,16.9,5.2v28.5c-6.1-2.7-11.5-4.7-16.2-6.1c-4.8-1.4-9.5-2.1-14.2-2.1
		c-9.8,0-17.4,2.4-22.9,7.2c-5.5,4.8-8.2,12.3-8.2,22.6c0,11.4,2.6,19.9,7.7,25.4c5.1,5.5,13.5,8.2,25,8.2c8.7,0,18.5-3,29.1-8.9
		V210c-5.3,2.8-10.9,4.9-16.6,6.3s-12.1,2.1-19.2,2.1C811.1,218.5,801.2,216.3,792.3,212L792.3,212z"/>
	<path class="st0" d="M976.6,113.4c9.9,9.4,14.9,25.1,14.9,47c0,17.6-4.5,31.8-13.3,42.5s-21,16-36.5,16c-11.3,0-20.7-2-28.2-6v42.9
		H881v-129c0-9,5-15.9,15-20.5c10-4.6,22.9-7,38.6-7.1C952.7,99.2,966.7,104,976.6,113.4z M951.9,184.6c4.3-5,6.5-13.5,6.5-25.4
		c0-10.7-1.9-18.7-5.7-24.1c-3.8-5.4-10.3-8.1-19.5-8.1c-13.2,0-19.8,2.5-19.8,7.6v52.9c2.7,1.6,5.6,2.8,8.9,3.6
		c3.3,0.7,6.5,1.1,9.6,1.1C940.9,192.2,947.6,189.7,951.9,184.6L951.9,184.6z"/>
	<path class="st0" d="M1118.9,131.3v127.6h-32.5v-46.7c-6.8,4.4-15.7,6.7-26.7,6.7c-16.4,0-29.1-5-38-14.9s-13.3-24.1-13.3-42.5
		c0-22.1,5.3-37.9,15.8-47.4c10.5-9.5,25.3-14.2,44.2-14.2C1102.1,99.9,1118.9,110.4,1118.9,131.3L1118.9,131.3z M1048.5,184.3
		c4.8,5.3,11.3,7.9,19.5,7.9c7.1,0,13.3-1.6,18.5-4.7v-49.8c0-3.3-1.8-5.8-5.3-7.6c-3.6-1.8-7.9-2.7-13.1-2.7
		c-9.3,0-16.1,2.8-20.3,8.3s-6.3,13.4-6.3,23.7C1041.3,170.8,1043.7,179,1048.5,184.3L1048.5,184.3z"/>
</g>
</svg>
