<?xml version="1.0" encoding="utf-8"?>
<!-- Generator: Adobe Illustrator 24.1.1, SVG Export Plug-In . SVG Version: 6.00 Build 0)  -->
<svg version="1.1" id="Layer_1" xmlns="http://www.w3.org/2000/svg" xmlns:xlink="http://www.w3.org/1999/xlink" x="0px" y="0px"
	 viewBox="0 0 2299.2 423.07" style="enable-background:new 0 0 2299.2 423.07;" xml:space="preserve">
<style type="text/css">
	.st0{fill:#862FF6;}
	.st1{fill:#58595B;}
</style>
<g>
	<path class="st0" d="M2030.5,413.65v-98c93.29,0,169.18-75.89,169.18-169.18h98C2297.68,293.79,2177.82,413.65,2030.5,413.65z"/>
	<polygon class="st0" points="2064.7,146.46 2131.41,0.92 2265.23,0.92 2198.52,146.46 	"/>
	<g>
		<g>
			<path class="st1" d="M171.4,208.21c19.3,10.93,28.95,30.59,28.95,58.97l-0.43,101.76c-0.29,17.88-9.23,30.87-26.82,38.96
				c-17.6,8.09-43.29,12.13-77.06,12.13c-63.01,0-94.52-24.55-94.52-73.66c0-20.72,6.45-36.89,19.37-48.54
				c12.91-11.64,32.15-17.46,57.69-17.46c10.5,0,21,1.35,31.51,4.04c10.5,2.7,19.59,6.17,27.25,10.43v-13.62
				c0-24.69-15.9-37.04-47.69-37.04c-12.21,0-24.77,2.2-37.68,6.6c-12.92,4.4-23.2,9.73-30.87,15.97v-56.2
				c7.66-5.11,19.37-9.51,35.13-13.2c15.75-3.69,32.71-5.53,50.88-5.53C130.67,191.81,152.1,197.28,171.4,208.21z M128.83,372.34
				c5.67-1.98,8.52-5.96,8.52-11.92v-33.21c-9.94-3.41-20.86-5.11-32.78-5.11c-13.91,0-24.06,2.06-30.44,6.17
				c-6.39,4.12-9.58,10.58-9.58,19.37c0,8.24,3.33,14.9,10.01,20.01c6.67,5.11,14.54,7.66,23.63,7.66
				C112.93,375.32,123.14,374.33,128.83,372.34z"/>
			<path class="st1" d="M283.59,397.88c-18.03-14.76-27.04-36.9-27.04-66.42V198.2h63.44v128.16c0,13.62,3.05,23.78,9.15,30.44
				c6.1,6.67,15.82,10.01,29.16,10.01c13.34,0,23.06-3.33,29.16-10.01c6.1-6.67,9.15-16.82,9.15-30.44V198.2h59.61v133.26
				c0,29.8-8.59,52.02-25.76,66.63c-17.18,14.62-41.37,21.93-72.59,21.93C326.38,420.02,301.61,412.65,283.59,397.88z"/>
			<path class="st1" d="M646.55,304.64l77.92,109h-74.93l-45.56-63.86l-43.85,63.86h-66.85l80.9-105.59L495.41,198.2h74.93
				l45.98,64.29l44.28-64.29h67.27L646.55,304.64z"/>
			<path class="st1" d="M949.7,322.52H807.49c5.39,29.8,25.4,44.71,60.03,44.71c10.5,0,20.79-1.49,30.87-4.47
				c10.07-2.98,20.79-6.88,32.15-11.71v54.5c-23.28,9.65-49.39,14.48-78.34,14.48c-21.86,0-41.02-4.47-57.48-13.41
				c-16.46-8.94-29.24-21.78-38.32-38.53c-9.09-16.74-13.62-36.47-13.62-59.18c0-37.47,9.29-66.49,27.89-87.07
				c18.59-20.58,45.06-30.87,79.4-30.87C917.34,190.96,950.55,234.82,949.7,322.52z M807.07,282.08h79.62
				c-1.99-15.33-6.03-26.25-12.13-32.78c-6.11-6.53-15.11-9.79-27.04-9.79C824.8,239.5,811.32,253.7,807.07,282.08z"/>
			<path class="st1" d="M1044.64,199.9c22.71-5.11,43-7.66,60.88-7.66c30.37,0,53.22,5.96,68.55,17.88
				c15.33,11.92,22.99,31.51,22.99,58.76v144.76h-63.44V281.65c0-24.69-13.91-37.04-41.72-37.04c-6.25,0-12.63,0.71-19.16,2.13
				c-6.53,1.42-11.64,3.13-15.33,5.11v161.79h-63.44V216.51C1005.04,210.55,1021.93,205.01,1044.64,199.9z"/>
			<path class="st1" d="M1285.83,404.7c-12.35-11.64-18.52-28.38-18.52-50.24V246.74h-31.51V198.2h31.51v-59.18h66.42v59.18h47.26
				v48.54h-47.26v99.63c0,7.38,1.56,12.85,4.68,16.39c3.12,3.55,8.37,5.32,15.75,5.32c4.54,0,9.22-0.78,14.05-2.34
				c4.82-1.56,9.08-3.76,12.77-6.6v54.07c-10.79,5.96-23.99,8.94-39.6,8.94C1316.7,422.15,1298.18,416.33,1285.83,404.7z"/>
			<path class="st1" d="M1429.1,119.86h65.57v48.96h-65.57V119.86z M1430.38,201.18h63.44l0.43,212.46h-63.86V201.18z"/>
			<path class="st1" d="M1566.2,391.07c-18.17-19.3-27.25-47.96-27.25-86c0-39.74,9.01-68.69,27.04-86.86
				c18.02-18.16,45.34-27.25,81.96-27.25c36.62,0,64.14,9.3,82.6,27.89c18.45,18.59,27.67,47.33,27.67,86.22
				c0,37.47-9.51,65.99-28.53,85.58c-19.02,19.59-46.27,29.38-81.75,29.38C1611.61,420.02,1584.36,410.38,1566.2,391.07z
				 M1683.28,352.97c7.94-10.92,11.92-26.89,11.92-47.9c0-22.99-3.9-39.38-11.71-49.18c-7.81-9.79-19.66-14.69-35.55-14.69
				c-16.46,0-28.31,4.9-35.55,14.69c-7.24,9.79-10.86,26.18-10.86,49.18c0,21.86,3.76,38.04,11.28,48.54
				c7.52,10.5,19.23,15.75,35.13,15.75C1663.55,369.36,1675.33,363.9,1683.28,352.97z"/>
			<path class="st1" d="M1830.17,415.98c-10.22-2.69-21.57-6.6-34.06-11.71V348.5c22.99,17.32,47.11,25.97,72.38,25.97
				c9.65,0,16.67-1.63,21.08-4.9c4.4-3.26,6.6-7.73,6.6-13.41c0-6.53-3.55-11.35-10.64-14.48c-7.1-3.12-18.45-6.53-34.06-10.22
				c-16.46-3.41-30.02-10.22-40.66-20.44c-10.64-10.22-15.97-25.12-15.97-44.71c0-16.74,4.26-30.51,12.77-41.3
				c8.51-10.78,19.23-18.66,32.15-23.63c12.91-4.96,26.32-7.45,40.23-7.45c17.03,0,30.87,1.49,41.51,4.47
				c10.64,2.98,21.08,7.6,31.29,13.84v49.81c-14.48-7.94-25.69-13.62-33.64-17.03c-7.95-3.41-17.18-5.11-27.68-5.11
				c-10.5,0-18.31,1.64-23.42,4.9c-5.11,3.27-7.66,7.88-7.66,13.84c0,7.1,2.83,12.28,8.51,15.54c5.67,3.27,14.76,6.6,27.25,10.01
				c14.19,3.69,25.4,7.31,33.64,10.86c8.23,3.55,15.61,9.65,22.14,18.31c6.53,8.66,9.79,20.8,9.79,36.4
				c-0.57,24.42-9.79,42.22-27.67,53.43c-17.88,11.21-40.59,16.82-68.12,16.82C1852.31,420.02,1840.39,418.67,1830.17,415.98z"/>
		</g>
	</g>
</g>
</svg>
