<svg width="46" height="46" viewBox="0 0 46 46" fill="none" xmlns="http://www.w3.org/2000/svg">
<path d="M26.9359 7.66699H17.4632C16.678 7.66699 16.0396 8.3054 16.0396 9.09059V12.0208H7.48346C6.1756 12.0208 5.11133 13.0851 5.11133 14.3929V35.9616C5.11133 37.2694 6.1756 38.3337 7.48346 38.3337H36.9139C38.2217 38.3337 39.286 37.2694 39.286 35.9616V14.3929C39.286 13.0851 38.2217 12.0208 36.9139 12.0208H28.3595V9.09059C28.3595 8.3054 27.721 7.66699 26.9359 7.66699ZM17.4632 9.09059H26.9359V12.0208H17.4632V9.09059ZM37.8624 35.9616C37.8624 36.4847 37.437 36.9101 36.9139 36.9101H7.48346C6.96036 36.9101 6.53492 36.4847 6.53492 35.9616V23.266H19.0334V25.0118C19.0334 25.862 19.7251 26.5535 20.5756 26.5535H23.8218C24.6719 26.5535 25.3635 25.862 25.3635 25.0118V23.266H37.8624V35.9616H37.8624ZM20.457 25.0118V21.7573C20.457 21.692 20.5102 21.6388 20.5756 21.6388H23.8218C23.8868 21.6388 23.9399 21.692 23.9399 21.7573V25.0118C23.9399 25.0768 23.8868 25.13 23.8218 25.13H20.5756C20.5102 25.13 20.457 25.0768 20.457 25.0118ZM36.9139 13.4444C37.437 13.4444 37.8624 13.8698 37.8624 14.3929V21.8424H25.3635V21.7573C25.3635 20.9068 24.6719 20.2152 23.8218 20.2152H20.5755C19.7251 20.2152 19.0334 20.9068 19.0334 21.7573V21.8424H6.53492V14.3929C6.53492 13.8698 6.96036 13.4444 7.48346 13.4444H36.9139Z" fill="#616161"/>
</svg>
