<svg width="18" height="18" viewBox="0 0 18 18" fill="none" xmlns="http://www.w3.org/2000/svg">
<path d="M10.6819 7.20996H3.19141V8.33354H10.6819V7.20996Z" fill="#616161"/>
<path d="M16.4439 18L17.2384 17.2055L14.5661 14.5333C15.0354 13.9009 15.3133 13.1185 15.3133 12.2722C15.3133 10.7493 14.4132 9.4328 13.1172 8.82614V4.07437L9.04288 0H0.757812V16.6665H13.1172V15.7184C13.349 15.6099 13.5681 15.4789 13.7717 15.3278L16.4439 18ZM9.37194 1.91807L11.1991 3.74527H9.37194V1.91807ZM1.88139 1.12358H8.24836V4.86885H11.9936V8.50016C11.8354 8.48001 11.6742 8.46963 11.5106 8.46963C10.3422 8.46963 9.29538 8.99948 8.59727 9.83134H3.19224V10.9549H7.94334C7.79121 11.3656 7.70795 11.8094 7.70795 12.2723C7.70795 12.3329 7.70952 12.3931 7.71233 12.453H3.19224V13.5766H7.93843C8.24161 14.4044 8.8249 15.0981 9.57272 15.5429H1.88139V1.12358ZM11.5106 14.9514C10.0334 14.9514 8.83153 13.7496 8.83153 12.2723C8.83153 10.7951 10.0334 9.59321 11.5106 9.59321C12.9879 9.59321 14.1897 10.795 14.1897 12.2723C14.1897 13.7496 12.9879 14.9514 11.5106 14.9514Z" fill="#616161"/>
</svg>
