<svg width="18" height="18" viewBox="0 0 18 18" fill="none" xmlns="http://www.w3.org/2000/svg">
<path fill-rule="evenodd" clip-rule="evenodd" d="M6.75 0.75C7.07282 0.75 7.35943 0.956573 7.46151 1.26283L11.25 12.6283L12.7885 8.01283C12.8906 7.70657 13.1772 7.5 13.5 7.5H16.5C16.9142 7.5 17.25 7.83579 17.25 8.25C17.25 8.66421 16.9142 9 16.5 9H14.0406L11.9615 15.2372C11.8594 15.5434 11.5728 15.75 11.25 15.75C10.9272 15.75 10.6406 15.5434 10.5385 15.2372L6.75 3.87171L5.21151 8.48717C5.10943 8.79343 4.82282 9 4.5 9H1.5C1.08579 9 0.75 8.66421 0.75 8.25C0.75 7.83579 1.08579 7.5 1.5 7.5H3.95943L6.03849 1.26283C6.14057 0.956573 6.42718 0.75 6.75 0.75Z" fill="#616161"/>
</svg>
