<svg width="46" height="46" viewBox="0 0 46 46" fill="none" xmlns="http://www.w3.org/2000/svg">
<path d="M26.7703 22.5982L39.3977 9.9232C39.4646 9.85712 39.5137 9.77526 39.5405 9.68517L40.8378 5.94813C40.8867 5.83821 40.9011 5.71606 40.8791 5.59779C40.8572 5.47952 40.7999 5.37068 40.7148 5.28562C40.6298 5.20056 40.5209 5.14328 40.4026 5.12132C40.2844 5.09937 40.1622 5.11377 40.0523 5.16264L36.2677 6.45989C36.1776 6.48674 36.0957 6.53586 36.0296 6.60271L23.4022 19.2301L21.9146 17.7305L23.2594 12.7914C23.3946 12.2885 23.3954 11.7589 23.2617 11.2556C23.128 10.7522 22.8646 10.2928 22.4977 9.9232L17.9276 5.34116C17.8582 5.26149 17.7681 5.20262 17.6672 5.1711C17.5664 5.13958 17.4587 5.13666 17.3563 5.16264L13.3813 6.24567C13.2816 6.27298 13.1909 6.32575 13.1178 6.39878C13.0448 6.47182 12.992 6.56261 12.9647 6.66222C12.9407 6.76278 12.9423 6.86775 12.9693 6.96754C12.9964 7.06734 13.048 7.15876 13.1194 7.23348L17.2135 11.3514C17.278 11.4186 17.3265 11.4996 17.3554 11.5882C17.3842 11.6768 17.3927 11.7708 17.3801 11.8631L16.6541 16.1952C16.6353 16.3179 16.5778 16.4314 16.4901 16.5191C16.4023 16.6069 16.2889 16.6644 16.1662 16.6832L11.8341 17.4092C11.7418 17.4209 11.648 17.412 11.5595 17.3832C11.4711 17.3544 11.39 17.3064 11.3223 17.2426L7.22823 13.1485C7.15351 13.077 7.06208 13.0254 6.96229 12.9984C6.8625 12.9714 6.75753 12.9698 6.65696 12.9938C6.55735 13.0211 6.46656 13.0738 6.39353 13.1469C6.32049 13.2199 6.26772 13.3107 6.24041 13.4103L5.13358 17.3854C5.10474 17.4857 5.10392 17.5919 5.13119 17.6926C5.15847 17.7933 5.2128 17.8846 5.2883 17.9566L9.89414 22.5268C10.2667 22.8967 10.7303 23.1619 11.238 23.2956C11.7457 23.4293 12.2797 23.4269 12.7862 23.2885L17.7253 21.9436L19.2248 23.4313L16.5589 26.0972L16.1424 25.6807C16.0297 25.5744 15.8807 25.5152 15.7258 25.5152C15.571 25.5152 15.4219 25.5744 15.3093 25.6807L6.08569 34.1545C5.78976 34.423 5.55246 34.7498 5.38863 35.1143C5.2248 35.4789 5.13797 35.8733 5.13358 36.2729C5.11982 36.6816 5.1898 37.0888 5.33921 37.4695C5.48861 37.8502 5.7143 38.1963 6.00238 38.4866L7.51386 39.998C7.79672 40.2794 8.13306 40.5012 8.50304 40.6504C8.87302 40.7996 9.26913 40.8732 9.66802 40.8668H9.72752C10.1267 40.8597 10.5202 40.7716 10.8843 40.6079C11.2485 40.4443 11.5756 40.2085 11.846 39.9147L20.3436 30.715C20.4499 30.6023 20.5091 30.4533 20.5091 30.2984C20.5091 30.1435 20.4499 29.9945 20.3436 29.8819L19.927 29.4653L22.5929 26.7994L35.7559 39.998C36.3157 40.5546 37.073 40.867 37.8624 40.8668H38.1005C38.5291 40.8355 38.9461 40.7132 39.3238 40.508C39.7014 40.3027 40.0309 40.0194 40.2903 39.6767C40.6908 39.0787 40.8685 38.359 40.7923 37.6434C40.7162 36.9277 40.3911 36.2615 39.8738 35.7611L26.7703 22.5982ZM36.7794 7.54292L39.3025 6.69792L38.4575 9.22102L25.9253 21.7532L24.2472 20.0751L36.7794 7.54292ZM10.9772 39.1054C10.8106 39.2782 10.611 39.4156 10.3901 39.5095C10.1693 39.6034 9.93179 39.6518 9.69182 39.6518C9.45185 39.6518 9.21435 39.6034 8.9935 39.5095C8.77265 39.4156 8.573 39.2782 8.40647 39.1054L6.84738 37.594C6.67669 37.4245 6.54225 37.2222 6.45222 36.9992C6.3622 36.7761 6.31848 36.5371 6.32372 36.2967C6.32853 36.057 6.3816 35.8206 6.47975 35.6018C6.5779 35.383 6.71912 35.1863 6.89499 35.0233L15.6782 26.9184L19.082 30.3222L10.9772 39.1054ZM19.0582 28.6203L17.3801 26.9422L20.046 24.2763L21.7241 25.9544L19.0582 28.6203ZM39.2906 38.9269C39.1401 39.1397 38.9449 39.317 38.7186 39.4463C38.4922 39.5756 38.2404 39.6538 37.9806 39.6753C37.7209 39.6969 37.4595 39.6613 37.215 39.571C36.9705 39.4808 36.7487 39.3381 36.5652 39.153L18.3084 20.8606C18.1949 20.7467 18.0408 20.6825 17.88 20.6821H17.7253L12.441 22.1459C12.138 22.227 11.8189 22.2268 11.5159 22.1453C11.213 22.0639 10.9368 21.904 10.7153 21.6818L6.39513 17.3616L7.12112 14.6838L10.4773 18.04C10.6773 18.2433 10.9237 18.395 11.1952 18.482C11.4668 18.5691 11.7555 18.5889 12.0364 18.5398L16.3566 17.8257C16.7256 17.764 17.0661 17.5886 17.3307 17.324C17.5952 17.0595 17.7706 16.719 17.8324 16.35L18.5465 12.0297C18.5956 11.7488 18.5758 11.4602 18.4887 11.1886C18.4016 10.917 18.2499 10.6707 18.0466 10.4707L14.6547 7.15017L17.2968 6.42419L21.617 10.7444C21.8402 10.9677 22.0006 11.2459 22.0821 11.551C22.1636 11.856 22.1633 12.1771 22.0812 12.482L20.6411 17.7543C20.6126 17.8565 20.6119 17.9644 20.6391 18.067C20.6663 18.1695 20.7204 18.2629 20.7958 18.3375L39.005 36.5347C39.3287 36.8337 39.5379 37.2362 39.5965 37.6729C39.6552 38.1096 39.5596 38.5531 39.3263 38.9269H39.2906Z" fill="#616161"/>
</svg>
