<?xml version="1.0" encoding="utf-8"?>
<!-- Generator: Adobe Illustrator 23.0.2, SVG Export Plug-In . SVG Version: 6.00 Build 0)  -->
<svg version="1.1" id="Layer_1" xmlns="http://www.w3.org/2000/svg" xmlns:xlink="http://www.w3.org/1999/xlink" x="0px" y="0px"
	 viewBox="0 0 33.1 43.7" style="enable-background:new 0 0 33.1 43.7;" xml:space="preserve">
<style type="text/css">
	.st0{fill:#FFFFFF;}
	.st1{fill:#872FF7;}
	.st2{fill:none;stroke:#872FF7;stroke-width:2.5;stroke-linecap:round;stroke-miterlimit:10;}
	.st3{fill:#72BF44;}
</style>
<g>
	<g>
		<path class="st0" d="M31.8,35.9h-24V1.3h19.4c2.6,0,4.6,2.1,4.6,4.6V35.9z"/>
		<path class="st1" d="M33.1,37.1H6.5V0h20.7c3.2,0,5.9,2.6,5.9,5.9V37.1z M9,34.6h21.5V5.9c0-1.9-1.5-3.4-3.4-3.4H9V34.6z"/>
	</g>
	<g>
		<path class="st0" d="M25.3,42.4h-24V7.8h21.2c1.6,0,2.8,1.3,2.8,2.8V42.4z"/>
		<path class="st1" d="M26.5,43.7H0V6.5h22.5c2.2,0,4.1,1.8,4.1,4.1V43.7z M2.5,41.2H24V10.6C24,9.8,23.3,9,22.5,9h-20V41.2z"/>
	</g>
	<g>
		<g>
			<path class="st1" d="M18.9,32.9H7.6c-0.7,0-1.3-0.6-1.3-1.3s0.6-1.3,1.3-1.3h11.3c0.7,0,1.3,0.6,1.3,1.3S19.6,32.9,18.9,32.9z"/>
		</g>
		<g>
			<path class="st1" d="M18.9,37.8H7.6c-0.7,0-1.3-0.6-1.3-1.3s0.6-1.3,1.3-1.3h11.3c0.7,0,1.3,0.6,1.3,1.3S19.6,37.8,18.9,37.8z"/>
		</g>
		<g>
			<path class="st0" d="M19.7,20.1L19.7,20.1c0-0.6-0.4-1.1-1-1.1l0,0c-0.4,0-0.8-0.3-0.9-0.6c0-0.1-0.1-0.2-0.1-0.3
				c-0.2-0.4-0.1-0.8,0.2-1.1l0,0c0.4-0.4,0.4-1,0-1.4l-0.1-0.1c-0.4-0.4-1-0.4-1.4,0l0,0c-0.3,0.3-0.7,0.4-1.1,0.2
				c-0.1,0-0.2-0.1-0.3-0.1c-0.4-0.1-0.6-0.5-0.6-0.9l0,0c0-0.5-0.4-1-1-1h-0.1c-0.5,0-1,0.4-1,1l0,0c0,0.4-0.3,0.8-0.6,0.9
				c-0.1,0-0.2,0.1-0.3,0.1c-0.4,0.2-0.8,0.1-1.1-0.2l0,0c-0.4-0.4-1-0.4-1.4,0l-0.1,0.1c-0.4,0.4-0.4,1,0,1.4l0,0
				c0.3,0.3,0.4,0.7,0.2,1.1c0,0.1-0.1,0.2-0.1,0.3c-0.1,0.4-0.5,0.6-0.9,0.6l0,0c-0.5,0-1,0.4-1,1v0.1c0,0.5,0.4,1,1,1l0,0
				c0.4,0,0.8,0.3,0.9,0.6c0,0.1,0.1,0.2,0.1,0.3c0.2,0.4,0.1,0.8-0.2,1.1l0,0c-0.4,0.4-0.4,1,0,1.4l0.1,0c0.4,0.4,1,0.4,1.4,0l0,0
				c0.3-0.3,0.7-0.4,1.1-0.2c0.1,0,0.2,0.1,0.3,0.1c0.4,0.1,0.6,0.5,0.6,0.9l0,0c0,0.5,0.4,1,1,1h0.1c0.5,0,1-0.4,1-1l0,0
				c0-0.4,0.3-0.8,0.6-0.9c0.1,0,0.2-0.1,0.3-0.1c0.4-0.2,0.8-0.1,1.1,0.2l0,0c0.4,0.4,1,0.4,1.4,0l0.1,0c0.4-0.4,0.4-1,0-1.4l0,0
				c-0.3-0.3-0.4-0.7-0.2-1.1c0-0.1,0.1-0.2,0.1-0.3c0.1-0.4,0.5-0.6,0.9-0.6l0,0C19.2,21.1,19.7,20.7,19.7,20.1z"/>
			<path class="st1" d="M13.3,27.7c-1.2,0-2.2-0.9-2.3-2.1c0,0,0,0-0.1,0c-0.9,0.7-2.2,0.7-3-0.1c-0.5-0.5-0.7-1-0.7-1.6
				c0-0.5,0.2-1,0.5-1.5c0,0,0,0,0-0.1c-1.2-0.1-2.1-1.1-2.1-2.2c0-1.2,0.9-2.2,2.1-2.3c0,0,0,0,0-0.1c-0.3-0.4-0.5-0.9-0.5-1.5
				c0-0.6,0.2-1.2,0.7-1.6c0.9-0.9,2.2-0.9,3.1-0.2c0,0,0,0,0.1,0c0.1-1.2,1.1-2.1,2.2-2.1c1.2,0,2.2,0.9,2.3,2.1c0,0,0,0,0.1,0
				c0.9-0.8,2.2-0.7,3,0.1c0.5,0.5,0.7,1,0.7,1.6c0,0.5-0.2,1-0.5,1.5c0,0,0,0,0,0.1c1.2,0.1,2.1,1.1,2.1,2.2v0.1
				c0,1.2-0.9,2.1-2.1,2.2c0,0,0,0,0,0.1c0.7,0.9,0.7,2.2-0.1,3c-0.9,0.9-2.2,0.9-3.1,0.2c0,0,0,0-0.1,0
				C15.5,26.8,14.5,27.7,13.3,27.7z M10.8,25.6C10.8,25.6,10.8,25.6,10.8,25.6C10.8,25.6,10.8,25.6,10.8,25.6z M15.8,25.6
				C15.8,25.6,15.8,25.6,15.8,25.6C15.8,25.6,15.8,25.6,15.8,25.6z M10.9,23.1c0.3,0,0.6,0.1,0.9,0.2c0.1,0,0.1,0.1,0.2,0.1
				c0.6,0.2,1,0.6,1.2,1.1c0.2-0.5,0.7-0.9,1.2-1.1c0.1,0,0.2-0.1,0.2-0.1c0.5-0.2,1.1-0.3,1.7-0.1c-0.2-0.5-0.2-1.1,0.1-1.7
				c0-0.1,0.1-0.2,0.1-0.2c0.2-0.6,0.6-1,1.1-1.2c-0.5-0.2-0.9-0.7-1.1-1.2c0-0.1-0.1-0.2-0.1-0.2c-0.2-0.5-0.3-1.1-0.1-1.7
				c-0.5,0.2-1.1,0.2-1.7-0.1c-0.1,0-0.2-0.1-0.2-0.1c-0.5-0.2-1-0.6-1.2-1.1c-0.2,0.5-0.7,0.9-1.2,1.1c-0.1,0-0.2,0.1-0.2,0.1
				c-0.5,0.2-1.1,0.3-1.7,0.1c0.2,0.5,0.2,1.1-0.1,1.7c0,0.1-0.1,0.2-0.1,0.2c-0.2,0.5-0.6,1-1.1,1.2c0.5,0.2,0.9,0.7,1.1,1.2
				c0,0.1,0.1,0.2,0.1,0.2c0.2,0.5,0.3,1.1,0.1,1.7C10.4,23.2,10.6,23.1,10.9,23.1z M7.6,22.2L7.6,22.2L7.6,22.2z M7.6,18
				C7.6,18,7.6,18,7.6,18C7.6,18,7.6,18,7.6,18z M15.8,14.6C15.8,14.6,15.8,14.6,15.8,14.6C15.8,14.6,15.8,14.6,15.8,14.6z"/>
		</g>
	</g>
</g>
</svg>
