<svg width="14" height="14" viewBox="0 0 14 14" fill="none" xmlns="http://www.w3.org/2000/svg">
<path fill-rule="evenodd" clip-rule="evenodd" d="M0.777832 6.06671C0.777832 3.14571 3.14574 0.777771 6.06671 0.777771C8.98767 0.777771 11.3556 3.14571 11.3556 6.06671C11.3556 8.98771 8.98767 11.3557 6.06671 11.3557C3.14574 11.3557 0.777832 8.98771 0.777832 6.06671ZM6.06671 2.02223C3.83303 2.02223 2.02227 3.833 2.02227 6.06671C2.02227 8.30042 3.83303 10.1112 6.06671 10.1112C8.30039 10.1112 10.1111 8.30042 10.1111 6.06671C10.1111 3.833 8.30039 2.02223 6.06671 2.02223Z" fill="#616161"/>
<path fill-rule="evenodd" clip-rule="evenodd" d="M8.92453 8.92442C9.16752 8.68142 9.56149 8.68142 9.80449 8.92442L13.04 12.16C13.283 12.403 13.283 12.797 13.04 13.04C12.797 13.283 12.4031 13.283 12.1601 13.04L8.92453 9.80438C8.68154 9.56139 8.68154 9.16741 8.92453 8.92442Z" fill="#616161"/>
</svg>
