<?xml version="1.0" encoding="utf-8"?>
<!-- Generator: Adobe Illustrator 23.0.2, SVG Export Plug-In . SVG Version: 6.00 Build 0)  -->
<svg version="1.1" id="Layer_1" xmlns="http://www.w3.org/2000/svg" xmlns:xlink="http://www.w3.org/1999/xlink" x="0px" y="0px"
	 viewBox="0 0 22.6 24.9" style="enable-background:new 0 0 22.6 24.9;" xml:space="preserve">
<style type="text/css">
	.st0{fill:#FFFFFF;}
	.st1{fill:#872FF7;}
	.st2{fill:none;stroke:#872FF7;stroke-width:2.5;stroke-linecap:round;stroke-miterlimit:10;}
	.st3{fill:#72BF44;}
</style>
<g>
	<g>
		<path class="st1" d="M11.3,24.9c-0.6,0-1.3-0.2-1.8-0.5L1.8,20C0.7,19.4,0,18.1,0,16.8V8.1c0-1.3,0.7-2.5,1.8-3.2l7.6-4.4
			c1.1-0.7,2.5-0.7,3.7,0l7.6,4.4c1.1,0.7,1.8,1.9,1.8,3.2v8.8c0,1.3-0.7,2.5-1.8,3.2l-7.6,4.4C12.6,24.7,11.9,24.9,11.3,24.9z
			 M11.3,2.5c-0.2,0-0.4,0.1-0.6,0.2L3.1,7c-0.4,0.2-0.6,0.6-0.6,1v8.8c0,0.4,0.2,0.8,0.6,1l7.6,4.4c0.4,0.2,0.8,0.2,1.2,0l7.6-4.4
			c0.4-0.2,0.6-0.6,0.6-1V8.1c0-0.4-0.2-0.8-0.6-1l-7.6-4.4C11.7,2.6,11.5,2.5,11.3,2.5z"/>
	</g>
	<g>
		<path class="st1" d="M11.3,18c-3,0-5.5-2.5-5.5-5.5c0-3,2.5-5.5,5.5-5.5c3,0,5.5,2.5,5.5,5.5C16.8,15.5,14.3,18,11.3,18z
			 M11.3,9.4c-1.7,0-3,1.4-3,3s1.4,3,3,3s3-1.4,3-3S12.9,9.4,11.3,9.4z"/>
	</g>
</g>
</svg>
