<svg width="15" height="15" viewBox="0 0 15 15" fill="none" xmlns="http://www.w3.org/2000/svg">
<path d="M9.20768 7.43839L14.1488 2.47861C14.175 2.45275 14.1942 2.42072 14.2047 2.38547L14.7123 0.923149C14.7315 0.880136 14.7371 0.832339 14.7285 0.786059C14.7199 0.739779 14.6975 0.697189 14.6642 0.663904C14.6309 0.63062 14.5883 0.608205 14.5421 0.599614C14.4958 0.591023 14.448 0.59666 14.405 0.615782L12.924 1.1234C12.8888 1.13391 12.8567 1.15313 12.8309 1.17929L7.88973 6.12044L7.3076 5.53365L7.83385 3.60096C7.88674 3.40416 7.88704 3.19693 7.83474 2.99997C7.78244 2.80302 7.67935 2.62324 7.5358 2.47861L5.74748 0.685638C5.72033 0.65446 5.68506 0.631425 5.64559 0.619092C5.60613 0.60676 5.56402 0.605614 5.52394 0.615782L3.96848 1.03958C3.9295 1.05026 3.89398 1.07091 3.8654 1.09949C3.83682 1.12807 3.81617 1.16359 3.80548 1.20257C3.7961 1.24192 3.79672 1.283 3.8073 1.32205C3.81788 1.3611 3.83806 1.39687 3.86602 1.42611L5.46806 3.03746C5.4933 3.06377 5.51228 3.09545 5.52356 3.13013C5.53485 3.1648 5.53817 3.20158 5.53326 3.23771L5.24917 4.93289C5.24181 4.98089 5.21932 5.02529 5.18498 5.05963C5.15064 5.09397 5.10624 5.11646 5.05824 5.12383L3.36306 5.40791C3.32694 5.41248 3.29025 5.40901 3.25563 5.39774C3.22101 5.38647 3.18931 5.36767 3.16281 5.34271L1.56077 3.74068C1.53154 3.71272 1.49576 3.69253 1.45671 3.68195C1.41766 3.67138 1.37659 3.67075 1.33723 3.68013C1.29826 3.69082 1.26273 3.71147 1.23415 3.74005C1.20557 3.76863 1.18492 3.80415 1.17424 3.84313L0.74113 5.39859C0.729846 5.43783 0.729522 5.47941 0.740195 5.51881C0.750868 5.55822 0.772129 5.59395 0.801672 5.62213L2.60396 7.41045C2.74976 7.5552 2.93113 7.65896 3.12981 7.71129C3.32848 7.76362 3.53744 7.76265 3.73563 7.7085L5.66831 7.18225L6.2551 7.76439L5.21192 8.80757L5.04892 8.64457C5.00484 8.60298 4.94653 8.57981 4.88592 8.57981C4.82532 8.57981 4.76701 8.60298 4.72293 8.64457L1.1137 11.9604C0.997896 12.0655 0.905037 12.1934 0.840929 12.336C0.776822 12.4787 0.742847 12.633 0.74113 12.7894C0.735746 12.9493 0.763128 13.1086 0.821592 13.2576C0.880055 13.4066 0.968366 13.542 1.0811 13.6556L1.67254 14.247C1.78323 14.3571 1.91484 14.4439 2.05961 14.5023C2.20439 14.5607 2.35939 14.5895 2.51547 14.587H2.53876C2.69495 14.5842 2.84894 14.5497 2.99143 14.4857C3.13391 14.4216 3.26192 14.3294 3.36772 14.2144L6.69287 10.6145C6.73446 10.5704 6.75763 10.5121 6.75763 10.4515C6.75763 10.3909 6.73446 10.3326 6.69287 10.2885L6.52987 10.1255L7.57305 9.08234L12.7238 14.247C12.9428 14.4648 13.2392 14.587 13.5481 14.587H13.6412C13.8089 14.5747 13.9721 14.5269 14.1199 14.4466C14.2677 14.3663 14.3966 14.2554 14.4981 14.1213C14.6548 13.8873 14.7243 13.6057 14.6946 13.3256C14.6648 13.0456 14.5375 12.7849 14.3351 12.5891L9.20768 7.43839ZM13.1243 1.5472L14.1116 1.21654L13.7809 2.20384L8.87703 7.10774L8.22039 6.45109L13.1243 1.5472ZM3.02775 13.8977C2.96259 13.9654 2.88446 14.0191 2.79804 14.0559C2.71163 14.0926 2.61869 14.1115 2.52479 14.1115C2.43089 14.1115 2.33795 14.0926 2.25153 14.0559C2.16511 14.0191 2.08699 13.9654 2.02182 13.8977L1.41175 13.3063C1.34496 13.24 1.29235 13.1608 1.25712 13.0735C1.22189 12.9863 1.20479 12.8928 1.20684 12.7987C1.20872 12.7049 1.22948 12.6124 1.26789 12.5268C1.3063 12.4412 1.36156 12.3642 1.43038 12.3004L4.86729 9.12891L6.19922 10.4608L3.02775 13.8977ZM6.1899 9.79487L5.53326 9.13822L6.57644 8.09504L7.23309 8.75168L6.1899 9.79487ZM14.1069 13.8279C14.048 13.9112 13.9716 13.9805 13.8831 14.0311C13.7945 14.0817 13.696 14.1123 13.5943 14.1207C13.4927 14.1292 13.3904 14.1152 13.2947 14.0799C13.1991 14.0446 13.1123 13.9888 13.0405 13.9164L5.89651 6.75846C5.85208 6.71388 5.79179 6.68876 5.72885 6.6886H5.66831L3.60057 7.26142C3.48198 7.29315 3.35712 7.29307 3.23857 7.26119C3.12002 7.2293 3.01197 7.16674 2.9253 7.0798L1.23478 5.38928L1.51886 4.34144L2.83215 5.65473C2.91041 5.73429 3.00682 5.79365 3.11309 5.82772C3.21935 5.86179 3.3323 5.86955 3.44223 5.85033L5.13275 5.57091C5.27714 5.54674 5.41039 5.47811 5.51391 5.37459C5.61743 5.27107 5.68606 5.13782 5.71022 4.99343L5.98965 3.30291C6.00887 3.19298 6.00111 3.08003 5.96704 2.97377C5.93297 2.8675 5.87361 2.77109 5.79405 2.69284L4.46679 1.39351L5.50066 1.10943L7.19117 2.79995C7.27851 2.88734 7.34128 2.9962 7.37316 3.11556C7.40505 3.23492 7.40492 3.36058 7.3728 3.47988L6.80929 5.54296C6.79813 5.58294 6.79785 5.62518 6.8085 5.6653C6.81914 5.70542 6.84032 5.74197 6.86984 5.77116L13.9952 12.8918C14.1218 13.0088 14.2037 13.1663 14.2266 13.3372C14.2496 13.5081 14.2122 13.6816 14.1209 13.8279H14.1069Z" fill="#616161"/>
</svg>
