<svg width="18" height="18" viewBox="0 0 18 18" fill="none" xmlns="http://www.w3.org/2000/svg">
<rect width="18" height="18" fill="white"/>
<path d="M8.61437 5.69922C7.02614 5.69922 5.73926 6.98566 5.73926 8.57334C5.73926 10.161 7.02614 11.4475 8.61437 11.4475C10.2026 11.4475 11.4895 10.161 11.4895 8.57334C11.4895 6.98566 10.2026 5.69922 8.61437 5.69922ZM8.17067 9.59171C8.13746 9.62491 8.09053 9.6525 8.04905 9.6525C8.00758 9.6525 7.96057 9.62347 7.926 9.59035L7.15193 8.81656L7.39798 8.57061L8.05042 9.22275L9.77549 7.48584L10.0174 7.73596L8.17067 9.59171Z" fill="#616161"/>
<path d="M6.84681 14.996C6.67229 14.9969 6.49946 14.9617 6.33917 14.8927L5.50359 14.5469C5.17474 14.4098 4.91356 14.1481 4.77718 13.8191C4.6408 13.49 4.64031 13.1204 4.77583 12.791L5.04088 12.1488C5.05127 12.1223 5.05382 12.0934 5.04825 12.0656C5.04267 12.0377 5.0292 12.012 5.00943 11.9916C4.98912 11.9702 4.96287 11.9554 4.93406 11.949C4.90525 11.9426 4.87518 11.9449 4.84771 11.9557L4.2053 12.2206C4.0416 12.2883 3.86618 12.323 3.68904 12.3228C3.51191 12.3226 3.33656 12.2875 3.173 12.2196C3.00945 12.1516 2.86091 12.052 2.73587 11.9266C2.61083 11.8012 2.51175 11.6524 2.44429 11.4886L2.10287 10.6623C1.96595 10.3324 1.9657 9.96162 2.10217 9.63151C2.23864 9.3014 2.50067 9.03897 2.83064 8.90193L3.47305 8.63697C3.499 8.62422 3.52079 8.60437 3.5359 8.57973C3.55101 8.55508 3.55881 8.52666 3.5584 8.49775C3.55969 8.4681 3.5523 8.43871 3.53714 8.41319C3.52198 8.38767 3.49971 8.36712 3.47305 8.35405L2.83064 8.09358C2.50067 7.95654 2.23864 7.69411 2.10217 7.364C1.9657 7.03389 1.96595 6.66311 2.10287 6.33318L2.44879 5.49789C2.58676 5.16996 2.84888 4.90989 3.17795 4.77443C3.50703 4.63898 3.87634 4.63914 4.2053 4.77487L4.84771 5.03983C4.87417 5.05021 4.90307 5.05277 4.93094 5.0472C4.95882 5.04162 4.98451 5.02815 5.00494 5.00839C5.02635 4.98808 5.04121 4.96185 5.04761 4.93305C5.05401 4.90424 5.05167 4.87419 5.04088 4.84672L4.77583 4.20454C4.70816 4.0409 4.67343 3.86553 4.67361 3.68846C4.6738 3.51139 4.7089 3.3361 4.77691 3.1726C4.84492 3.0091 4.9445 2.86061 5.06996 2.73561C5.19542 2.61062 5.3443 2.51157 5.50809 2.44414L6.33468 2.10284C6.66472 1.96596 7.03563 1.96571 7.36585 2.10214C7.69608 2.23856 7.9586 2.50049 8.09569 2.83035L8.36074 3.47254C8.37349 3.49848 8.39335 3.52027 8.418 3.53537C8.44265 3.55048 8.47109 3.55827 8.5 3.55786C8.52966 3.55915 8.55906 3.55176 8.58459 3.53661C8.61012 3.52145 8.63068 3.49919 8.64376 3.47254L8.90431 2.83035C9.0414 2.50049 9.30392 2.23856 9.63415 2.10214C9.96437 1.96571 10.3353 1.96596 10.6653 2.10284L11.5009 2.44863C11.8298 2.5857 12.0909 2.84738 12.2273 3.17643C12.3637 3.50548 12.3642 3.87513 12.2287 4.20454L11.9591 4.84672C11.9487 4.87318 11.9462 4.90206 11.9518 4.92993C11.9573 4.9578 11.9708 4.98348 11.9906 5.0039C12.0109 5.0253 12.0371 5.04016 12.0659 5.04656C12.0948 5.05296 12.1248 5.05061 12.1523 5.03983L12.7947 4.77487C12.9584 4.70723 13.1338 4.67251 13.311 4.67269C13.4881 4.67288 13.6634 4.70796 13.827 4.77595C13.9906 4.84393 14.1391 4.94348 14.2641 5.0689C14.3892 5.19432 14.4883 5.34315 14.5557 5.50687L14.8971 6.33318C15.034 6.66311 15.0343 7.03389 14.8978 7.364C14.7614 7.69411 14.4993 7.95654 14.1694 8.09358L13.527 8.35854C13.501 8.37129 13.4792 8.39114 13.4641 8.41578C13.449 8.44043 13.4412 8.46885 13.4416 8.49775C13.4403 8.52741 13.4477 8.5568 13.4629 8.58232C13.478 8.60784 13.5003 8.62839 13.527 8.64146L14.1694 8.90193C14.4993 9.03897 14.7614 9.3014 14.8978 9.63151C15.0343 9.96162 15.034 10.3324 14.8971 10.6623L14.5512 11.4976C14.4141 11.8264 14.1523 12.0874 13.8232 12.2238C13.494 12.3601 13.1242 12.3606 12.7947 12.2251L12.1523 11.9602C12.1258 11.9498 12.0969 11.9472 12.0691 11.9528C12.0412 11.9584 12.0155 11.9718 11.9951 11.9916C11.9737 12.0119 11.9588 12.0382 11.9524 12.067C11.946 12.0958 11.9483 12.1258 11.9591 12.1533L12.2242 12.7955C12.2918 12.9591 12.3266 13.1345 12.3264 13.3115C12.3262 13.4886 12.2911 13.6639 12.2231 13.8274C12.1551 13.9909 12.0555 14.1394 11.93 14.2644C11.8046 14.3894 11.6557 14.4884 11.4919 14.5559L10.6653 14.8972C10.3353 15.034 9.96437 15.0343 9.63415 14.8979C9.30392 14.7614 9.0414 14.4995 8.90431 14.1696L8.63926 13.5275C8.62716 13.5007 8.60758 13.478 8.58288 13.462C8.55818 13.4461 8.5294 13.4376 8.5 13.4376C8.47034 13.4364 8.44094 13.4437 8.41541 13.4589C8.38988 13.4741 8.36932 13.4963 8.35624 13.523L8.09569 14.1652C7.9933 14.4118 7.81993 14.6224 7.59757 14.7703C7.37521 14.9182 7.1139 14.9968 6.84681 14.996ZM4.90611 11.044C5.0782 11.0454 5.24735 11.0889 5.39882 11.1705C5.55028 11.2522 5.67948 11.3697 5.77515 11.5127C5.87081 11.6557 5.93006 11.8199 5.94772 11.9911C5.96537 12.1622 5.94091 12.3351 5.87646 12.4946L5.60692 13.1323C5.58422 13.1871 5.5726 13.2459 5.57275 13.3052C5.5729 13.3645 5.5848 13.4232 5.60777 13.4779C5.63075 13.5326 5.66434 13.5822 5.7066 13.6239C5.74886 13.6655 5.79896 13.6984 5.854 13.7206L6.70305 14.0664C6.75789 14.0891 6.81667 14.1007 6.87602 14.1005C6.93537 14.1004 6.99409 14.0885 7.04881 14.0655C7.10353 14.0425 7.15316 14.009 7.19482 13.9667C7.23649 13.9245 7.26936 13.8744 7.29155 13.8194L7.55211 13.1862C7.62897 12.9971 7.7599 12.8349 7.9285 12.7199C8.0971 12.6049 8.29589 12.5421 8.5 12.5395C8.70666 12.5382 8.90899 12.5987 9.08107 12.7131C9.25315 12.8275 9.38713 12.9907 9.46586 13.1817L9.73091 13.8194C9.75353 13.874 9.78672 13.9236 9.82856 13.9654C9.87041 14.0072 9.9201 14.0403 9.97478 14.0628C10.0295 14.0853 10.088 14.0968 10.1472 14.0967C10.2063 14.0965 10.2649 14.0847 10.3194 14.0619L11.1505 13.7206C11.2589 13.673 11.3455 13.5865 11.3931 13.4781C11.4159 13.4233 11.4277 13.3645 11.4277 13.3052C11.4277 13.2458 11.4159 13.187 11.3931 13.1323L11.128 12.4946C11.0595 12.3065 11.046 12.1029 11.0893 11.9074C11.1326 11.712 11.2308 11.5331 11.3723 11.3915C11.5139 11.25 11.6929 11.1519 11.8884 11.1086C12.0839 11.0653 12.2877 11.0788 12.4757 11.1473L13.1137 11.4168C13.1685 11.4395 13.2273 11.4511 13.2866 11.4509C13.346 11.4508 13.4047 11.4389 13.4594 11.4159C13.5141 11.393 13.5638 11.3594 13.6054 11.3171C13.6471 11.2749 13.68 11.2248 13.7022 11.1698L14.0481 10.339C14.0708 10.2842 14.0824 10.2254 14.0822 10.1661C14.0821 10.1068 14.0702 10.048 14.0472 9.99335C14.0242 9.93865 13.9907 9.88904 13.9484 9.84739C13.9061 9.80574 13.856 9.77288 13.801 9.75069L13.1676 9.49022C12.9773 9.40976 12.8151 9.27506 12.701 9.10295C12.5869 8.93083 12.526 8.72893 12.526 8.52245C12.526 8.31598 12.5869 8.11408 12.701 7.94196C12.8151 7.76985 12.9773 7.63515 13.1676 7.55468L13.8055 7.28973C13.8617 7.26886 13.9132 7.23694 13.9569 7.19586C14.0006 7.15477 14.0356 7.10536 14.0599 7.05053C14.0842 6.99569 14.0973 6.93655 14.0983 6.8766C14.0994 6.81664 14.0884 6.75708 14.066 6.70143L13.7246 5.87063C13.6771 5.76222 13.5905 5.67566 13.482 5.62813C13.4272 5.60527 13.3684 5.59351 13.3091 5.59351C13.2497 5.59351 13.1909 5.60527 13.1361 5.62813L12.4982 5.89308C12.3077 5.96468 12.1006 5.97949 11.9019 5.9357C11.7032 5.8919 11.5214 5.7914 11.3787 5.64638C11.2361 5.50136 11.1385 5.31806 11.098 5.11872C11.0575 4.91938 11.0757 4.71257 11.1505 4.52339L11.42 3.88569C11.4427 3.83088 11.4544 3.77211 11.4542 3.71279C11.4541 3.65346 11.4422 3.59475 11.4192 3.54005C11.3962 3.48535 11.3626 3.43574 11.3204 3.39409C11.2781 3.35244 11.228 3.31958 11.173 3.29739L10.3194 2.92915C10.2646 2.90645 10.2058 2.89484 10.1464 2.89499C10.0871 2.89514 10.0284 2.90704 9.97365 2.93C9.91893 2.95297 9.86931 2.98655 9.82764 3.02879C9.78598 3.07104 9.7531 3.12112 9.73091 3.17614L9.47035 3.80935C9.39204 4.00192 9.25767 4.16653 9.08464 4.28184C8.91162 4.39714 8.70794 4.45783 8.5 4.45602C8.29334 4.45729 8.09101 4.39685 7.91893 4.28243C7.74685 4.16802 7.61287 4.00485 7.53414 3.81384L7.26909 3.17614C7.2234 3.07125 7.13938 2.98775 7.03418 2.94268C6.92899 2.89761 6.81055 2.89438 6.70305 2.93364L5.87197 3.27494C5.76352 3.32247 5.67693 3.40904 5.62938 3.51744C5.60652 3.57222 5.59475 3.63099 5.59475 3.69034C5.59475 3.74969 5.60652 3.80846 5.62938 3.86324L5.89443 4.50093C5.97616 4.69481 5.99779 4.90875 5.95653 5.11506C5.91526 5.32137 5.813 5.51054 5.66297 5.6581C5.51294 5.80565 5.32207 5.90479 5.11504 5.94268C4.90802 5.98057 4.69439 5.95547 4.5018 5.87063L3.86388 5.60118C3.80905 5.57849 3.75026 5.56688 3.69092 5.56702C3.63157 5.56717 3.57284 5.57907 3.51812 5.60204C3.4634 5.625 3.41378 5.65858 3.37211 5.70083C3.33045 5.74307 3.29757 5.79315 3.27538 5.84818L2.92947 6.70143C2.90677 6.75624 2.89515 6.81501 2.8953 6.87433C2.89545 6.93366 2.90735 6.99237 2.93032 7.04707C2.9533 7.10177 2.98689 7.15138 3.02915 7.19303C3.07141 7.23468 3.12151 7.26754 3.17655 7.28973L3.80997 7.55019C4.00019 7.63066 4.16248 7.76536 4.27658 7.93747C4.39068 8.10959 4.45152 8.31149 4.45152 8.51796C4.45152 8.72444 4.39068 8.92634 4.27658 9.09846C4.16248 9.27057 4.00019 9.40527 3.80997 9.48573L3.17206 9.75069C3.11741 9.7733 3.06777 9.80648 3.02599 9.84831C2.9842 9.89015 2.95109 9.93982 2.92855 9.99448C2.90601 10.0491 2.89449 10.1077 2.89465 10.1668C2.89481 10.2259 2.90664 10.2845 2.92947 10.339L3.27089 11.1698C3.31844 11.2782 3.40503 11.3648 3.51348 11.4123C3.56827 11.4351 3.62706 11.4469 3.68643 11.4469C3.74581 11.4469 3.80459 11.4351 3.85939 11.4123L4.4973 11.1473C4.62511 11.0854 4.76422 11.0503 4.90611 11.044Z" fill="#616161"/>
</svg>
