<svg width="18" height="18" viewBox="0 0 18 18" fill="none" xmlns="http://www.w3.org/2000/svg">
<path fill-rule="evenodd" clip-rule="evenodd" d="M10.5 3.75C10.5 2.09315 11.8431 0.75 13.5 0.75C15.1569 0.75 16.5 2.09315 16.5 3.75C16.5 5.40685 15.1569 6.75 13.5 6.75C11.8431 6.75 10.5 5.40685 10.5 3.75ZM13.5 2.25C12.6716 2.25 12 2.92157 12 3.75C12 4.57843 12.6716 5.25 13.5 5.25C14.3284 5.25 15 4.57843 15 3.75C15 2.92157 14.3284 2.25 13.5 2.25Z" fill="#616161"/>
<path fill-rule="evenodd" clip-rule="evenodd" d="M1.5 9C1.5 7.34315 2.84315 6 4.5 6C6.15685 6 7.5 7.34315 7.5 9C7.5 10.6569 6.15685 12 4.5 12C2.84315 12 1.5 10.6569 1.5 9ZM4.5 7.5C3.67157 7.5 3 8.17157 3 9C3 9.82843 3.67157 10.5 4.5 10.5C5.32843 10.5 6 9.82843 6 9C6 8.17157 5.32843 7.5 4.5 7.5Z" fill="#616161"/>
<path fill-rule="evenodd" clip-rule="evenodd" d="M10.5 14.25C10.5 12.5931 11.8431 11.25 13.5 11.25C15.1569 11.25 16.5 12.5931 16.5 14.25C16.5 15.9069 15.1569 17.25 13.5 17.25C11.8431 17.25 10.5 15.9069 10.5 14.25ZM13.5 12.75C12.6716 12.75 12 13.4216 12 14.25C12 15.0784 12.6716 15.75 13.5 15.75C14.3284 15.75 15 15.0784 15 14.25C15 13.4216 14.3284 12.75 13.5 12.75Z" fill="#616161"/>
<path fill-rule="evenodd" clip-rule="evenodd" d="M5.7945 9.7549C6.00305 9.39702 6.46223 9.27595 6.82011 9.4845L11.9426 12.4695C12.3005 12.678 12.4216 13.1372 12.213 13.4951C12.0045 13.853 11.5453 13.9741 11.1874 13.7655L6.0649 10.7805C5.70701 10.572 5.58595 10.1128 5.7945 9.7549Z" fill="#616161"/>
<path fill-rule="evenodd" clip-rule="evenodd" d="M12.2053 4.50449C12.414 4.86224 12.2933 5.3215 11.9355 5.53027L6.82053 8.51527C6.46278 8.72405 6.00351 8.60328 5.79474 8.24553C5.58596 7.88778 5.70673 7.42852 6.06448 7.21974L11.1795 4.23474C11.5372 4.02597 11.9965 4.14673 12.2053 4.50449Z" fill="#616161"/>
</svg>
