<svg width="18" height="18" viewBox="0 0 18 18" fill="none" xmlns="http://www.w3.org/2000/svg">
<path fill-rule="evenodd" clip-rule="evenodd" d="M9.00002 3.19444L7.35505 6.52697C7.2459 6.7481 7.03501 6.90145 6.79099 6.93711L3.11133 7.47495L5.77332 10.0677C5.95023 10.24 6.03097 10.4884 5.98923 10.7318L5.36116 14.3938L8.65093 12.6637C8.86947 12.5488 9.13057 12.5488 9.34911 12.6637L12.6389 14.3938L12.0108 10.7318C11.9691 10.4884 12.0498 10.24 12.2267 10.0677L14.8887 7.47495L11.2091 6.93711C10.965 6.90145 10.7541 6.7481 10.645 6.52697L9.00002 3.19444ZM9.00002 1.5L8.32749 1.16803L6.18433 5.50985L1.39155 6.21038C1.10913 6.25166 0.874621 6.44967 0.786587 6.72117C0.698554 6.99268 0.772259 7.29062 0.976722 7.48977L4.44413 10.867L3.62582 15.6382C3.57755 15.9196 3.69324 16.204 3.92422 16.3718C4.1552 16.5396 4.46142 16.5617 4.71411 16.4288L9.00002 14.1749L13.2859 16.4288C13.5386 16.5617 13.8448 16.5396 14.0758 16.3718C14.3068 16.204 14.4225 15.9196 14.3742 15.6382L13.5559 10.867L17.0233 7.48977C17.2278 7.29062 17.3015 6.99268 17.2135 6.72117C17.1254 6.44967 16.8909 6.25166 16.6085 6.21038L11.8157 5.50985L9.67255 1.16803L9.00002 1.5Z" fill="#616161"/>
</svg>
