<svg width="16" height="18" viewBox="0 0 16 18" fill="none" xmlns="http://www.w3.org/2000/svg">
<path fill-rule="evenodd" clip-rule="evenodd" d="M1.25 12C1.66421 12 2 12.3358 2 12.75V15C2 15.4142 2.33579 15.75 2.75 15.75H13.25C13.6642 15.75 14 15.4142 14 15V12.75C14 12.3358 14.3358 12 14.75 12C15.1642 12 15.5 12.3358 15.5 12.75V15C15.5 16.2426 14.4926 17.25 13.25 17.25H2.75C1.50736 17.25 0.5 16.2426 0.5 15V12.75C0.5 12.3358 0.835786 12 1.25 12Z" fill="#616161"/>
<path fill-rule="evenodd" clip-rule="evenodd" d="M7.46967 0.96967C7.76256 0.676777 8.23744 0.676777 8.53033 0.96967L11.5303 3.96967C11.8232 4.26256 11.8232 4.73744 11.5303 5.03033C11.2374 5.32322 10.7626 5.32322 10.4697 5.03033L8 2.56066L5.53033 5.03033C5.23744 5.32322 4.76256 5.32322 4.46967 5.03033C4.17678 4.73744 4.17678 4.26256 4.46967 3.96967L7.46967 0.96967Z" fill="#616161"/>
<path fill-rule="evenodd" clip-rule="evenodd" d="M8 0.75C8.41421 0.75 8.75 1.08579 8.75 1.5V12C8.75 12.4142 8.41421 12.75 8 12.75C7.58579 12.75 7.25 12.4142 7.25 12V1.5C7.25 1.08579 7.58579 0.75 8 0.75Z" fill="#616161"/>
</svg>
