<svg width="18" height="18" viewBox="0 0 18 18" fill="none" xmlns="http://www.w3.org/2000/svg">
<path fill-rule="evenodd" clip-rule="evenodd" d="M8.66696 1.75883C8.66674 1.75895 8.66651 1.75906 8.66629 1.75917L3.18084 4.50189L8.99996 7.41145L14.8192 4.50186L9.33379 1.75917C9.33356 1.75906 9.33334 1.75895 9.33311 1.75883C9.12325 1.65481 8.87683 1.65481 8.66696 1.75883ZM15.75 5.71347L9.74996 8.7135L9.75 16.0403L15.3321 13.2492L15.3338 13.2484C15.5887 13.1217 15.7499 12.8617 15.75 12.5771V5.71347ZM8.25 16.044L8.24996 8.71351L2.25004 5.71354V12.5752C2.24805 12.8601 2.40763 13.1215 2.6619 13.2499C2.66211 13.25 2.6617 13.2498 2.6619 13.2499L8.25 16.044ZM1.99792 3.4163C1.23381 3.79641 0.75049 4.57613 0.750037 5.42962L0.750037 12.5677C0.745175 13.4219 1.22453 14.2053 1.98755 14.5898L1.98963 14.5908L7.98941 17.5907C8.6232 17.9079 9.36937 17.9079 10.0032 17.5907L16.0013 14.5917C16.0015 14.5915 16.0018 14.5914 16.002 14.5913C16.7662 14.2112 17.2496 13.4315 17.25 12.5779V5.43002C17.2496 4.57659 16.7663 3.79652 16.0023 3.41639C16.002 3.41622 16.0016 3.41604 16.0013 3.41587L10.0029 0.416698L10.0013 0.415873C9.37058 0.102465 8.6295 0.102465 7.99879 0.415873L7.99713 0.4167L1.99879 3.41587C1.9985 3.41602 1.99821 3.41616 1.99792 3.4163Z" fill="#616161"/>
</svg>
