<svg xmlns="http://www.w3.org/2000/svg" xmlns:xlink="http://www.w3.org/1999/xlink" width="669" zoomAndPan="magnify" viewBox="0 0 501.75 681.000002" height="908" preserveAspectRatio="xMidYMid meet" version="1.0"><defs><clipPath id="85ea786bb4"><path d="M 28.960938 0.0742188 L 425.28125 0.0742188 L 425.28125 680 L 28.960938 680 Z M 28.960938 0.0742188 " clip-rule="nonzero"/></clipPath><clipPath id="bdf4d7c073"><path d="M 72 193.703125 L 384 193.703125 L 384 442 L 72 442 Z M 72 193.703125 " clip-rule="nonzero"/></clipPath></defs><g clip-path="url(#85ea786bb4)"><path fill="#6946dd" d="M 28.960938 0.0742188 L 425.28125 0.0742188 L 425.28125 680.265625 L 28.960938 680.265625 Z M 28.960938 0.0742188 " fill-opacity="1" fill-rule="nonzero"/></g><path fill="#6946dd" d="M 118.097656 271.578125 C 118.992188 268.097656 118.199219 263.726562 114.222656 262.632812 C 110.941406 261.738281 107.359375 264.320312 104.675781 265.714844 C 102.390625 266.90625 99.902344 267.800781 97.515625 268.992188 C 91.453125 271.875 86.082031 276.347656 82.40625 282.011719 C 81.609375 283.203125 80.914062 284.59375 80.714844 285.984375 C 80.515625 287.476562 81.011719 289.066406 82.304688 289.863281 C 83.597656 290.65625 85.386719 290.457031 86.679688 289.664062 C 88.070312 288.96875 89.164062 287.773438 90.359375 286.878906 C 95.332031 283.003906 101.992188 282.507812 107.757812 280.023438 C 109.945312 279.128906 111.933594 277.9375 114.023438 276.644531 C 115.015625 276.046875 116.011719 275.453125 116.707031 274.457031 C 117.503906 273.664062 117.898438 272.667969 118.097656 271.578125 Z M 31.300781 329.511719 C 31.300781 329.511719 33.882812 331.5 36.867188 334.78125 L 163.734375 261.636719 C 173.480469 255.972656 185.609375 255.972656 195.351562 261.636719 L 464.105469 416.667969 C 472.953125 404.144531 499.699219 410.007812 499.699219 410.007812 L 499.699219 442.703125 C 499.597656 445.6875 498.109375 448.566406 495.226562 450.257812 L 340.816406 539.398438 C 328.386719 546.554688 313.074219 546.554688 300.546875 539.398438 L 8.132812 370.65625 C 4.554688 368.570312 2.664062 364.992188 2.566406 361.3125 L 2.566406 328.617188 Z M 31.300781 329.511719 " fill-opacity="1" fill-rule="nonzero"/><path fill="#182d88" d="M 421.550781 483.25 C 422.542969 482.257812 423.140625 480.964844 423.140625 479.472656 L 423.140625 472.617188 C 423.140625 470.828125 421.152344 469.636719 419.5625 470.53125 L 409.519531 476.292969 L 404.449219 486.03125 C 407.429688 485.933594 421.25 483.546875 421.550781 483.25 Z M 374.121094 437.039062 C 382.773438 432.070312 400.570312 430.777344 409.320312 435.746094 C 414.589844 438.828125 417.871094 448.667969 413.199219 450.65625 C 412.5 448.070312 410.414062 445.585938 407.035156 443.597656 C 398.382812 438.628906 384.164062 438.628906 375.414062 443.597656 C 371.9375 445.585938 369.945312 448.070312 369.25 450.65625 C 364.578125 448.667969 368.851562 440.121094 374.121094 437.039062 Z M 31.894531 332.890625 L 288.816406 485.535156 L 451.875 393.613281 L 194.160156 244.746094 C 185.710938 239.875 173.578125 238.382812 165.128906 243.253906 L 31.894531 321.859375 C 27.621094 324.34375 27.621094 330.507812 31.894531 332.890625 Z M 339.023438 431.375 L 413.199219 388.542969 L 423.039062 394.207031 L 348.867188 437.039062 Z M 148.027344 361.214844 L 243.972656 305.761719 C 252.125 306.160156 260.277344 305.960938 268.332031 304.769531 L 159.359375 367.675781 Z M 139.277344 328.617188 L 190.082031 299.300781 C 194.558594 300.496094 199.132812 300.992188 203.707031 301.488281 C 205.097656 301.6875 206.589844 301.785156 207.980469 301.984375 L 150.511719 335.078125 Z M 139.277344 328.617188 " fill-opacity="1" fill-rule="nonzero"/><path fill="#f7f5fa" d="M 384.464844 378.109375 L 393.410156 383.175781 L 391.222656 384.46875 C 391.027344 384.570312 391.027344 384.667969 391.027344 384.667969 C 391.027344 384.765625 391.027344 384.765625 391.125 384.867188 C 391.222656 384.964844 391.324219 384.964844 391.421875 384.964844 C 391.523438 384.964844 391.722656 384.867188 391.820312 384.867188 L 396.890625 381.886719 C 397.089844 381.785156 397.089844 381.6875 397.089844 381.6875 C 397.089844 381.585938 397.089844 381.585938 396.992188 381.488281 C 396.890625 381.386719 396.792969 381.386719 396.691406 381.386719 C 396.59375 381.386719 396.394531 381.488281 396.296875 381.488281 L 394.109375 382.78125 L 386.054688 378.207031 L 388.839844 377.3125 C 388.9375 377.3125 389.035156 377.214844 389.136719 377.214844 C 389.234375 377.214844 389.234375 377.113281 389.234375 377.015625 C 389.234375 376.917969 389.234375 376.917969 389.136719 376.816406 C 389.035156 376.816406 388.9375 376.71875 388.839844 376.71875 C 388.738281 376.71875 388.640625 376.71875 388.441406 376.816406 Z M 376.410156 387.449219 L 378 388.34375 C 379.390625 389.140625 380.785156 389.539062 382.175781 389.636719 C 383.269531 389.734375 384.265625 389.539062 385.058594 389.039062 C 385.457031 388.839844 385.757812 388.542969 385.953125 388.246094 C 386.152344 387.949219 386.253906 387.648438 386.152344 387.351562 C 386.152344 387.152344 386.054688 386.953125 385.855469 386.65625 C 385.65625 386.355469 385.457031 386.058594 385.257812 385.859375 C 384.960938 385.5625 384.464844 385.265625 383.964844 384.867188 L 382.375 383.972656 C 380.984375 383.175781 379.589844 382.78125 378.199219 382.679688 C 377.105469 382.582031 376.113281 382.78125 375.316406 383.277344 C 374.917969 383.476562 374.621094 383.773438 374.421875 384.070312 C 374.222656 384.371094 374.121094 384.667969 374.222656 384.964844 C 374.222656 385.164062 374.320312 385.363281 374.519531 385.660156 C 374.71875 385.960938 374.917969 386.257812 375.117188 386.457031 C 375.316406 386.855469 375.8125 387.152344 376.410156 387.449219 Z M 377.105469 387.152344 C 376.507812 386.855469 376.011719 386.457031 375.714844 386.058594 C 375.414062 385.660156 375.117188 385.363281 375.117188 385.066406 C 375.117188 384.867188 375.117188 384.667969 375.214844 384.46875 C 375.316406 384.171875 375.613281 383.972656 375.914062 383.773438 C 376.609375 383.375 377.601562 383.277344 378.695312 383.375 C 379.789062 383.574219 380.882812 383.871094 381.878906 384.46875 L 383.269531 385.265625 C 383.867188 385.5625 384.363281 385.960938 384.664062 386.355469 C 384.960938 386.753906 385.257812 387.054688 385.257812 387.449219 C 385.257812 387.648438 385.257812 387.847656 385.160156 387.949219 C 385.058594 388.246094 384.761719 388.445312 384.464844 388.644531 C 383.765625 389.039062 382.773438 389.140625 381.679688 389.039062 C 380.585938 388.839844 379.492188 388.542969 378.496094 387.949219 Z M 367.363281 392.816406 C 368.257812 392.917969 369.050781 393.015625 369.847656 392.917969 C 370.644531 392.816406 371.238281 392.617188 371.738281 392.320312 C 372.132812 392.023438 372.53125 391.722656 372.632812 391.328125 C 372.832031 390.929688 372.730469 390.53125 372.53125 390.132812 C 372.332031 389.734375 371.933594 389.339844 371.339844 389.039062 C 370.542969 388.644531 369.648438 388.34375 368.457031 388.246094 C 367.363281 388.144531 366.367188 388.34375 365.570312 388.839844 C 364.976562 389.140625 364.675781 389.636719 364.480469 390.035156 C 364.378906 390.53125 364.480469 391.027344 364.875 391.523438 C 365.375 392.21875 366.269531 392.917969 367.363281 393.511719 C 368.257812 394.007812 369.152344 394.40625 370.046875 394.507812 C 370.644531 394.605469 371.339844 394.703125 372.035156 394.703125 C 372.730469 394.703125 373.527344 394.605469 374.222656 394.507812 C 375.214844 394.308594 376.011719 394.007812 376.707031 393.613281 C 377.207031 393.3125 377.503906 393.113281 377.601562 392.816406 C 377.703125 392.71875 377.601562 392.617188 377.503906 392.519531 C 377.402344 392.519531 377.304688 392.417969 377.207031 392.417969 C 377.105469 392.417969 377.007812 392.417969 376.90625 392.519531 C 376.808594 392.519531 376.808594 392.617188 376.707031 392.71875 C 376.609375 392.917969 376.410156 393.015625 376.113281 393.214844 C 375.019531 393.8125 373.726562 394.207031 372.132812 394.207031 C 370.542969 394.207031 369.25 393.910156 368.058594 393.214844 C 368.058594 393.214844 367.757812 393.113281 367.363281 392.816406 Z M 366.46875 392.121094 C 365.769531 391.425781 365.375 390.828125 365.375 390.332031 C 365.375 389.933594 365.671875 389.539062 366.269531 389.238281 C 366.863281 388.941406 367.5625 388.742188 368.355469 388.742188 C 369.25 388.742188 370.046875 388.941406 370.742188 389.339844 C 371.4375 389.734375 371.738281 390.132812 371.835938 390.628906 C 371.9375 391.128906 371.636719 391.523438 371.140625 391.824219 C 370.84375 392.023438 370.445312 392.121094 370.046875 392.21875 C 369.550781 392.320312 369.050781 392.320312 368.457031 392.320312 C 368.058594 392.417969 367.363281 392.320312 366.46875 392.121094 Z M 359.707031 397.785156 C 359.40625 398.28125 359.308594 398.679688 359.507812 399.078125 C 359.605469 399.476562 360.003906 399.773438 360.402344 400.070312 C 361.199219 400.46875 362.09375 400.667969 363.1875 400.667969 C 364.28125 400.667969 365.273438 400.371094 366.070312 399.972656 C 366.863281 399.476562 367.363281 398.976562 367.363281 398.28125 C 367.363281 397.6875 367.0625 397.089844 366.269531 396.691406 C 365.769531 396.394531 365.175781 396.195312 364.480469 396.195312 C 363.78125 396.097656 363.085938 396.195312 362.191406 396.296875 C 362.390625 395.898438 362.488281 395.5 362.390625 395.203125 C 362.292969 394.804688 361.992188 394.40625 361.496094 394.207031 C 360.800781 393.8125 359.90625 393.613281 358.910156 393.613281 C 357.816406 393.613281 356.921875 393.910156 356.125 394.308594 C 355.332031 394.804688 354.933594 395.300781 354.933594 395.898438 C 354.933594 396.492188 355.230469 396.992188 355.929688 397.386719 C 356.425781 397.6875 357.023438 397.886719 357.71875 397.886719 C 358.3125 397.984375 359.011719 397.886719 359.707031 397.785156 Z M 361.097656 399.773438 C 360.5 399.476562 360.300781 399.078125 360.300781 398.582031 C 360.300781 398.082031 360.699219 397.6875 361.296875 397.289062 C 361.992188 396.890625 362.6875 396.691406 363.582031 396.691406 C 364.480469 396.691406 365.175781 396.792969 365.671875 397.089844 C 366.269531 397.386719 366.46875 397.785156 366.46875 398.28125 C 366.46875 398.78125 366.070312 399.175781 365.472656 399.574219 C 364.777344 399.972656 364.082031 400.171875 363.1875 400.171875 C 362.390625 400.171875 361.695312 400.070312 361.097656 399.773438 Z M 356.722656 396.992188 C 356.226562 396.691406 355.929688 396.296875 355.929688 395.796875 C 355.929688 395.300781 356.226562 394.902344 356.824219 394.605469 C 357.417969 394.308594 358.113281 394.109375 358.910156 394.109375 C 359.707031 394.109375 360.402344 394.207031 360.898438 394.507812 C 361.394531 394.804688 361.59375 395.101562 361.59375 395.597656 C 361.59375 396.097656 361.199219 396.492188 360.601562 396.792969 C 360.003906 397.191406 359.308594 397.289062 358.511719 397.386719 C 357.71875 397.488281 357.21875 397.289062 356.722656 396.992188 Z M 336.339844 407.128906 L 336.042969 406.929688 L 340.714844 404.246094 L 341.3125 404.542969 C 341.511719 404.644531 341.609375 404.644531 341.710938 404.644531 C 341.808594 404.644531 341.910156 404.644531 342.007812 404.542969 C 342.109375 404.445312 342.109375 404.445312 342.109375 404.34375 C 342.109375 404.246094 342.007812 404.144531 341.910156 404.144531 L 340.714844 403.449219 L 334.75 406.929688 L 335.746094 407.523438 L 346.480469 410.703125 C 346.679688 410.804688 346.78125 410.804688 346.878906 410.804688 C 346.980469 410.804688 347.078125 410.804688 347.179688 410.703125 C 347.277344 410.605469 347.277344 410.605469 347.277344 410.507812 C 347.277344 410.40625 347.277344 410.40625 347.179688 410.308594 C 347.179688 410.308594 347.078125 410.207031 346.878906 410.207031 Z M 335.546875 412.890625 C 334.550781 412.792969 333.753906 412.792969 333.058594 412.890625 C 332.363281 412.992188 331.765625 413.1875 331.269531 413.488281 C 330.574219 413.886719 330.277344 414.382812 330.277344 414.976562 C 330.277344 415.574219 330.671875 416.171875 331.566406 416.667969 C 332.363281 417.066406 333.257812 417.363281 334.351562 417.460938 C 335.445312 417.5625 336.441406 417.363281 337.335938 416.867188 C 337.929688 416.566406 338.230469 416.171875 338.429688 415.671875 C 338.628906 415.175781 338.429688 414.679688 338.03125 414.082031 C 337.535156 413.386719 336.738281 412.691406 335.644531 412.097656 C 334.847656 411.597656 333.953125 411.300781 332.960938 411.101562 C 332.164062 410.902344 331.371094 410.902344 330.574219 410.902344 C 329.777344 410.902344 328.984375 411.003906 328.1875 411.203125 C 327.390625 411.402344 326.695312 411.597656 326 411.996094 C 325.601562 412.292969 325.304688 412.492188 325.203125 412.792969 C 325.203125 412.890625 325.203125 412.992188 325.304688 413.089844 C 325.402344 413.1875 325.503906 413.1875 325.601562 413.1875 C 325.703125 413.1875 325.800781 413.1875 325.902344 413.089844 C 326 413.089844 326 412.992188 326.101562 412.890625 C 326.199219 412.691406 326.398438 412.492188 326.695312 412.394531 C 327.691406 411.796875 328.984375 411.5 330.671875 411.5 C 332.363281 411.5 333.753906 411.796875 334.847656 412.492188 C 334.949219 412.492188 335.148438 412.59375 335.546875 412.890625 Z M 336.441406 413.488281 C 337.136719 414.082031 337.535156 414.679688 337.433594 415.175781 C 337.433594 415.671875 337.136719 416.070312 336.539062 416.371094 C 335.941406 416.667969 335.246094 416.867188 334.453125 416.867188 C 333.558594 416.867188 332.859375 416.667969 332.164062 416.269531 C 331.46875 415.871094 331.171875 415.476562 331.171875 414.976562 C 331.171875 414.480469 331.371094 414.082031 331.964844 413.785156 C 332.464844 413.488281 333.160156 413.386719 334.054688 413.289062 C 334.453125 413.289062 335.347656 413.386719 336.441406 413.488281 Z M 321.128906 415.671875 L 324.210938 417.460938 C 323.714844 417.5625 323.214844 417.761719 322.820312 417.859375 C 322.421875 418.058594 322.023438 418.15625 321.726562 418.355469 C 320.929688 418.855469 320.53125 419.351562 320.53125 420.046875 C 320.53125 420.640625 321.027344 421.238281 321.925781 421.734375 C 322.917969 422.332031 324.011719 422.628906 325.304688 422.628906 C 326.496094 422.628906 327.589844 422.332031 328.585938 421.835938 C 329.183594 421.4375 329.679688 421.039062 329.976562 420.542969 C 330.175781 420.246094 330.375 419.847656 330.375 419.550781 C 330.375 419.351562 330.375 419.25 330.277344 419.152344 C 330.175781 419.050781 330.078125 419.050781 329.976562 419.050781 C 329.878906 419.050781 329.777344 419.050781 329.679688 419.152344 C 329.578125 419.25 329.578125 419.25 329.578125 419.351562 C 329.480469 420.246094 328.984375 420.941406 328.089844 421.4375 C 327.292969 421.835938 326.496094 422.132812 325.503906 422.132812 C 324.507812 422.132812 323.613281 421.933594 322.71875 421.4375 C 322.023438 421.039062 321.625 420.542969 321.625 420.046875 C 321.625 419.550781 321.921875 419.152344 322.621094 418.753906 C 323.316406 418.355469 324.109375 418.058594 325.105469 417.859375 C 325.304688 417.859375 325.503906 417.761719 325.601562 417.761719 C 325.703125 417.660156 325.703125 417.660156 325.703125 417.5625 C 325.703125 417.460938 325.601562 417.460938 325.503906 417.363281 L 321.328125 414.976562 L 316.851562 417.5625 C 316.652344 417.660156 316.652344 417.761719 316.652344 417.761719 C 316.652344 417.859375 316.652344 417.859375 316.753906 417.960938 C 316.851562 418.058594 316.953125 418.058594 317.050781 418.058594 C 317.152344 418.058594 317.351562 417.960938 317.449219 417.960938 Z M 314.765625 426.40625 L 319.039062 423.921875 L 318.34375 423.523438 L 308.699219 422.132812 L 307.308594 422.929688 L 313.472656 426.507812 L 312.976562 426.804688 C 312.777344 426.902344 312.777344 427.003906 312.675781 427.003906 C 312.675781 427.101562 312.675781 427.101562 312.777344 427.203125 C 312.875 427.300781 312.976562 427.300781 313.074219 427.300781 C 313.175781 427.300781 313.375 427.203125 313.472656 427.203125 L 313.96875 426.902344 L 315.957031 428.097656 L 315.460938 428.394531 C 315.261719 428.492188 315.261719 428.59375 315.164062 428.59375 C 315.164062 428.691406 315.164062 428.691406 315.261719 428.792969 C 315.363281 428.890625 315.460938 428.890625 315.5625 428.890625 C 315.660156 428.890625 315.859375 428.792969 315.957031 428.792969 L 318.34375 427.398438 C 318.542969 427.300781 318.542969 427.203125 318.644531 427.203125 C 318.644531 427.101562 318.644531 427.101562 318.542969 427.003906 C 318.445312 426.902344 318.34375 426.902344 318.246094 426.902344 C 318.144531 426.902344 317.945312 427.003906 317.847656 427.003906 L 316.652344 427.699219 Z M 314.167969 426.007812 L 308.699219 422.828125 L 309 422.628906 L 317.746094 423.921875 Z M 293.289062 435.945312 C 292.992188 436.445312 292.890625 436.941406 292.992188 437.339844 C 293.089844 437.734375 293.488281 438.132812 293.984375 438.429688 C 294.78125 438.828125 295.675781 439.027344 296.96875 439.027344 C 298.261719 439.027344 299.253906 438.730469 300.148438 438.132812 C 300.746094 437.835938 301.144531 437.4375 301.542969 436.941406 C 301.9375 436.445312 302.039062 436.046875 302.039062 435.847656 C 302.039062 435.746094 302.039062 435.648438 301.9375 435.648438 C 301.839844 435.648438 301.738281 435.550781 301.640625 435.550781 C 301.542969 435.550781 301.441406 435.550781 301.34375 435.648438 C 301.242188 435.648438 301.242188 435.746094 301.144531 435.847656 C 300.945312 436.640625 300.347656 437.339844 299.453125 437.835938 C 298.65625 438.230469 297.863281 438.53125 296.867188 438.53125 C 295.875 438.53125 295.179688 438.429688 294.582031 438.132812 C 294.183594 437.933594 293.984375 437.636719 293.886719 437.238281 C 293.785156 436.839844 293.886719 436.542969 294.085938 436.144531 C 294.28125 435.746094 294.679688 435.449219 295.179688 435.152344 C 295.375 435.050781 295.375 434.953125 295.375 434.953125 C 295.375 434.953125 295.375 434.855469 295.277344 434.753906 C 295.179688 434.65625 295.078125 434.65625 294.980469 434.65625 C 294.878906 434.65625 294.679688 434.65625 294.582031 434.753906 L 294.085938 435.050781 C 293.488281 435.351562 292.890625 435.550781 292.097656 435.550781 C 291.398438 435.550781 290.804688 435.449219 290.304688 435.152344 C 289.808594 434.855469 289.609375 434.554688 289.609375 434.058594 C 289.609375 433.660156 290.007812 433.261719 290.605469 432.867188 C 291.003906 432.566406 291.5 432.367188 292.097656 432.269531 C 292.59375 432.171875 293.089844 432.070312 293.585938 432.070312 C 293.785156 432.070312 293.886719 432.070312 293.984375 432.070312 C 294.085938 432.070312 294.085938 432.070312 294.183594 431.972656 C 294.28125 431.871094 294.28125 431.871094 294.28125 431.773438 C 294.28125 431.671875 294.28125 431.671875 294.183594 431.574219 C 293.984375 431.476562 293.488281 431.476562 292.792969 431.574219 C 291.699219 431.671875 290.804688 431.972656 290.007812 432.46875 C 289.210938 432.964844 288.714844 433.460938 288.714844 434.058594 C 288.714844 434.65625 289.011719 435.152344 289.609375 435.449219 C 290.007812 435.648438 290.503906 435.847656 291.199219 435.945312 C 291.898438 436.144531 292.59375 436.144531 293.289062 435.945312 Z M 292.394531 441.609375 L 287.421875 444.492188 L 287.222656 444.394531 C 287.023438 444.292969 286.925781 444.292969 286.828125 444.292969 C 286.726562 444.292969 286.628906 444.292969 286.527344 444.394531 C 286.429688 444.492188 286.429688 444.492188 286.429688 444.59375 C 286.429688 444.691406 286.527344 444.792969 286.628906 444.792969 L 287.523438 445.289062 L 293.785156 441.710938 L 292.890625 441.214844 C 290.40625 441.3125 288.019531 441.414062 285.535156 441.414062 C 284.441406 441.414062 283.546875 441.414062 283.148438 441.414062 C 282.648438 441.414062 282.253906 441.3125 282.054688 441.3125 C 281.753906 441.214844 281.554688 441.113281 281.359375 441.015625 C 280.859375 440.714844 280.5625 440.320312 280.5625 439.824219 C 280.5625 439.324219 280.960938 438.929688 281.554688 438.53125 C 282.152344 438.230469 282.75 438.035156 283.546875 437.933594 C 284.339844 437.835938 284.9375 437.933594 285.535156 438.132812 C 285.734375 438.230469 285.832031 438.230469 285.929688 438.230469 C 286.03125 438.230469 286.128906 438.230469 286.230469 438.132812 C 286.328125 438.035156 286.328125 438.035156 286.328125 437.933594 C 286.328125 437.835938 286.328125 437.835938 286.230469 437.734375 C 286.03125 437.636719 285.535156 437.535156 284.835938 437.4375 C 284.140625 437.339844 283.445312 437.4375 282.75 437.535156 C 282.054688 437.636719 281.457031 437.933594 280.960938 438.132812 C 280.164062 438.628906 279.765625 439.125 279.667969 439.824219 C 279.667969 440.519531 279.964844 441.015625 280.660156 441.414062 C 280.960938 441.609375 281.257812 441.710938 281.65625 441.808594 C 281.953125 441.910156 282.453125 441.910156 282.949219 442.007812 C 283.445312 442.007812 284.339844 442.007812 285.535156 442.007812 C 288.21875 441.710938 290.605469 441.710938 292.394531 441.609375 Z M 271.015625 443.796875 L 279.964844 448.867188 L 277.777344 450.15625 C 277.578125 450.257812 277.578125 450.355469 277.578125 450.355469 C 277.578125 450.457031 277.578125 450.457031 277.679688 450.554688 C 277.777344 450.65625 277.878906 450.65625 277.976562 450.65625 C 278.078125 450.65625 278.277344 450.554688 278.375 450.554688 L 283.445312 447.574219 C 283.644531 447.472656 283.644531 447.375 283.644531 447.375 C 283.644531 447.375 283.644531 447.277344 283.546875 447.175781 C 283.445312 447.078125 283.347656 447.078125 283.246094 447.078125 C 283.148438 447.078125 282.949219 447.175781 282.847656 447.175781 L 280.660156 448.46875 L 272.609375 443.898438 L 275.390625 443.003906 C 275.492188 443.003906 275.589844 442.902344 275.691406 442.902344 C 275.789062 442.902344 275.789062 442.804688 275.789062 442.703125 C 275.789062 442.605469 275.789062 442.605469 275.691406 442.503906 C 275.589844 442.503906 275.492188 442.40625 275.390625 442.40625 C 275.292969 442.40625 275.191406 442.40625 274.996094 442.503906 Z M 262.964844 453.140625 L 264.554688 454.035156 C 265.945312 454.828125 267.339844 455.226562 268.730469 455.324219 C 269.824219 455.425781 270.820312 455.226562 271.613281 454.730469 C 272.011719 454.53125 272.308594 454.230469 272.507812 453.933594 C 272.707031 453.636719 272.808594 453.335938 272.707031 453.039062 C 272.707031 452.839844 272.609375 452.640625 272.410156 452.34375 C 272.210938 452.046875 272.011719 451.746094 271.8125 451.550781 C 271.515625 451.25 271.015625 450.953125 270.519531 450.554688 L 268.929688 449.660156 C 267.539062 448.867188 266.144531 448.46875 264.753906 448.367188 C 263.660156 448.269531 262.664062 448.46875 261.871094 448.964844 C 261.472656 449.164062 261.175781 449.460938 260.976562 449.761719 C 260.777344 450.058594 260.675781 450.355469 260.777344 450.65625 C 260.777344 450.851562 260.875 451.050781 261.074219 451.449219 C 261.273438 451.746094 261.472656 452.046875 261.671875 452.246094 C 261.871094 452.445312 262.367188 452.742188 262.964844 453.140625 Z M 263.660156 452.742188 C 263.0625 452.445312 262.566406 452.046875 262.269531 451.648438 C 261.96875 451.25 261.671875 450.953125 261.671875 450.65625 C 261.671875 450.457031 261.671875 450.257812 261.769531 450.058594 C 261.871094 449.761719 262.167969 449.5625 262.464844 449.363281 C 263.164062 448.964844 264.15625 448.867188 265.25 448.964844 C 266.34375 449.164062 267.4375 449.460938 268.433594 450.058594 L 269.824219 450.851562 C 270.421875 451.152344 270.917969 451.550781 271.214844 451.945312 C 271.515625 452.34375 271.8125 452.640625 271.8125 453.039062 C 271.8125 453.238281 271.8125 453.4375 271.714844 453.535156 C 271.613281 453.835938 271.316406 454.035156 271.015625 454.230469 C 270.320312 454.628906 269.328125 454.730469 268.234375 454.628906 C 267.140625 454.429688 266.046875 454.132812 265.050781 453.535156 Z M 8.132812 318.980469 L 163.734375 229.140625 C 173.480469 223.476562 185.609375 223.476562 195.351562 229.140625 L 236.515625 252.894531 C 242.78125 252.59375 249.144531 252.496094 255.507812 252.792969 C 261.671875 253.09375 268.132812 253.6875 273.902344 251.601562 C 278.671875 249.910156 282.648438 246.632812 286.726562 243.652344 C 297.367188 236 310.191406 230.234375 323.117188 231.925781 C 324.609375 231.527344 326.101562 231.527344 327.292969 232.421875 C 327.890625 232.917969 328.386719 233.515625 328.785156 234.210938 C 330.175781 236.792969 330.773438 239.675781 331.269531 242.558594 C 332.761719 251.003906 334.253906 259.550781 335.746094 268 C 337.136719 275.75 338.527344 283.601562 337.832031 291.453125 C 337.433594 295.625 336.441406 300 333.65625 303.179688 C 332.464844 304.570312 331.070312 305.5625 329.480469 306.558594 L 495.226562 402.160156 C 501.191406 405.636719 501.191406 414.28125 495.226562 417.761719 L 340.816406 506.902344 C 328.386719 514.058594 313.074219 514.058594 300.546875 506.902344 L 8.132812 338.160156 C 0.675781 333.886719 0.675781 323.253906 8.132812 318.980469 Z M 114.023438 267.5 C 111.636719 266.109375 108.753906 266.109375 106.464844 267.5 L 88.371094 277.9375 C 86.679688 278.929688 86.679688 281.414062 88.371094 282.410156 L 88.46875 282.410156 C 91.351562 284.097656 94.832031 284.097656 97.714844 282.410156 L 114.121094 272.96875 C 116.210938 271.773438 116.210938 268.695312 114.023438 267.5 Z M 375.414062 457.710938 C 384.066406 462.679688 398.285156 462.679688 407.035156 457.710938 C 415.683594 452.742188 415.683594 444.492188 407.035156 439.523438 C 398.382812 434.554688 384.164062 434.554688 375.414062 439.523438 C 366.664062 444.492188 366.664062 452.742188 375.414062 457.710938 Z M 36.570312 332.097656 L 293.089844 480.167969 L 442.230469 394.109375 L 296.769531 310.132812 C 289.808594 308.84375 282.847656 306.855469 275.890625 305.265625 C 273.703125 304.769531 271.414062 304.371094 269.226562 304.667969 C 247.550781 308.046875 225.578125 303.875 203.804688 301.390625 C 196.148438 300.496094 188.195312 299.601562 181.433594 295.726562 C 174.671875 291.847656 169.503906 284.394531 170.695312 276.742188 C 171.589844 271.476562 175.367188 267.105469 179.941406 264.222656 C 184.515625 261.441406 189.785156 260.046875 194.957031 258.855469 C 198.136719 258.160156 201.320312 257.464844 204.5 256.867188 L 189.785156 248.320312 C 181.335938 243.453125 170.894531 243.453125 162.441406 248.320312 L 36.46875 320.96875 C 32.292969 323.550781 32.292969 329.710938 36.570312 332.097656 Z M 398.980469 485.535156 L 398.980469 492.292969 C 398.980469 494.183594 400.96875 495.273438 402.660156 494.378906 L 420.554688 484.046875 C 420.953125 483.847656 421.25 483.546875 421.550781 483.351562 L 409.617188 476.492188 L 401.664062 481.0625 C 399.972656 481.957031 398.980469 483.648438 398.980469 485.535156 Z M 398.980469 485.535156 " fill-opacity="1" fill-rule="nonzero"/><g clip-path="url(#bdf4d7c073)"><path fill="#fecf47" d="M 233.433594 420.445312 L 259.183594 435.25 L 269.921875 429.089844 L 244.171875 414.28125 Z M 271.8125 417.265625 L 261.671875 423.128906 L 254.613281 419.050781 L 264.753906 413.1875 Z M 224.785156 425.511719 L 232.441406 421.140625 L 240.292969 425.710938 L 229.058594 432.171875 L 224.882812 429.785156 C 223.191406 428.792969 223.191406 426.40625 224.785156 425.511719 Z M 258.09375 435.945312 L 250.636719 440.21875 C 248.25 441.609375 245.265625 441.609375 242.878906 440.21875 L 238.902344 437.933594 L 250.136719 431.476562 Z M 273.304688 418.058594 L 277.480469 420.445312 C 279.171875 421.4375 279.171875 423.722656 277.480469 424.71875 L 271.015625 428.394531 L 263.164062 423.824219 Z M 245.265625 413.585938 L 252.226562 409.613281 C 254.214844 408.519531 256.601562 408.519531 258.589844 409.613281 L 263.261719 412.292969 L 253.121094 418.15625 Z M 248.84375 430.582031 L 237.609375 437.039062 L 230.550781 432.964844 L 241.785156 426.503906 Z M 84.292969 305.960938 C 93.339844 300.695312 108.15625 300.695312 117.203125 305.960938 C 126.25 311.226562 126.25 319.773438 117.203125 324.941406 C 112.628906 327.527344 106.664062 328.816406 100.699219 328.816406 C 91.652344 335.078125 80.117188 331.402344 75.644531 328.816406 C 71.070312 326.234375 72.164062 318.878906 77.433594 315.402344 C 77.53125 312.023438 79.71875 308.542969 84.292969 305.960938 Z M 163.734375 317.191406 C 271.8125 373.636719 327.691406 377.3125 368.851562 353.5625 C 377.304688 348.691406 383.371094 322.457031 383.765625 307.453125 C 384.464844 285.589844 378.496094 260.941406 371.339844 256.867188 C 349.863281 244.445312 262.167969 193.761719 262.167969 193.761719 C 262.167969 193.761719 217.128906 219.699219 152.898438 214.832031 C 152.898438 214.832031 155.382812 244.644531 117.699219 278.632812 C 117.699219 278.53125 148.027344 308.941406 163.734375 317.191406 Z M 184.117188 287.179688 L 207.582031 273.664062 L 301.640625 273.664062 L 301.640625 246.433594 L 325.105469 232.917969 L 325.105469 287.179688 L 321.625 293.636719 L 188.792969 293.636719 Z M 184.117188 287.179688 " fill-opacity="1" fill-rule="nonzero"/></g><path fill="#e29417" d="M 184.117188 296.222656 L 325.105469 296.222656 L 325.105469 287.179688 L 184.117188 287.179688 Z M 61.027344 319.375 C 65.601562 316.792969 71.566406 315.5 77.53125 315.5 C 77.53125 318.980469 79.820312 322.359375 84.292969 325.042969 C 88.867188 327.625 94.832031 328.917969 100.796875 328.917969 C 100.796875 332.394531 98.511719 335.773438 94.039062 338.457031 C 84.988281 343.722656 70.175781 343.722656 61.128906 338.457031 C 51.980469 333.089844 51.980469 324.542969 61.027344 319.375 Z M 117.699219 278.53125 C 117.699219 278.53125 210.367188 331.996094 225.777344 340.84375 C 259.285156 360.121094 330.277344 364.59375 371.4375 340.84375 C 379.890625 335.972656 383.371094 322.359375 383.867188 307.351562 C 383.867188 307.351562 383.867188 307.351562 383.964844 307.351562 C 384.464844 307.847656 383.964844 322.457031 383.964844 322.457031 C 383.667969 337.960938 380.1875 352.371094 371.539062 357.339844 C 330.375 381.089844 259.285156 376.617188 225.878906 357.339844 C 210.464844 348.496094 117.800781 295.03125 117.800781 295.03125 Z M 117.699219 278.53125 " fill-opacity="1" fill-rule="nonzero"/></svg>